<svg version="1.2" xmlns="http://www.w3.org/2000/svg" viewBox="0 0 404 532" width="404" height="532">
	<defs>
		<clipPath clipPathUnits="userSpaceOnUse" id="cp1">
			<path d="m207.47 408.93c0 0-0.21-9.11-4.7-9.23-2.51 0.12-2.94 3.29-2.3 5.89 0.64 2.61 3.29 3.46 4.44 2.99 1.15-0.47 2.56 0.35 2.56 0.35z"/>
		</clipPath>
	</defs>
	<style>
		.s0 { fill: #685346 } 
		.s1 { fill: #3b2518 } 
		.s2 { fill: #915639 } 
		.s3 { fill: #602f19 } 
		.s4 { fill: #d97b46 } 
		.s5 { fill: #a84e22 } 
		.s6 { fill: #ba5f31 } 
		.s7 { fill: #ffd7b8 } 
		.s8 { mix-blend-mode: screen;fill: #ffd7b8 } 
		.s9 { fill: #e95961 } 
		.s10 { fill: #cd5056 } 
		.s11 { opacity: .5;mix-blend-mode: multiply;fill: #e95961 } 
		.s12 { fill: #8b431c } 
		.s13 { fill: #4e2c17 } 
		.s14 { fill: #ffffff } 
		.s15 { fill: #cf7e5b } 
		.s16 { fill: #9cb1c0 } 
		.s17 { fill: #7391ad } 
		.s18 { mix-blend-mode: multiply;fill: #51627a } 
		.s19 { mix-blend-mode: multiply;fill: #7391ad } 
		.s20 { fill: #d7d7d7 } 
		.s21 { fill: #7a4d2d } 
		.s22 { fill: #512e17 } 
		.s23 { opacity: .5;mix-blend-mode: screen;fill: #d97b46 } 
	</style>
	<g id="Layer 1">
		<g id="&lt;Group&gt;">
			<g id="&lt;Group&gt;">
				<path id="&lt;Path&gt;" class="s0" d="m213.4 386.37c0 0 0.22-8.6-4.87-13.32-5.1-4.72-7.78-6.73-6.25-13.65 0 0 0.74-3.75-1.05-0.5-1.79 3.25-3.54 10.06 1.68 15.09 6.25 6.04 5 13.73 5 13.73 0 0 5 2.74 5.49-1.35z"/>
				<path id="&lt;Path&gt;" class="s1" d="m201.69 358.83q0.34 0.06 0.65 0.21c0.13-0.85 0.32-2.7-1.06-0.22q0.2-0.02 0.41 0.01z"/>
				<path id="&lt;Path&gt;" class="s1" d="m201.72 361.52q0.1 0.02 0.2 0.04 0.04-0.36 0.1-0.73-0.3-0.12-0.62-0.17c-0.17-0.02-0.65-0.11-0.95-0.06q-0.15 0.4-0.29 0.83c0.48-0.15 1.03-0.04 1.56 0.09z"/>
				<path id="&lt;Path&gt;" class="s1" d="m201.87 362.74q0-0.28 0.01-0.59c-0.62-0.2-1.31-0.27-1.92-0.04q-0.1 0.36-0.18 0.72c0.59-0.23 1.51-0.27 2.09-0.09z"/>
				<path id="&lt;Path&gt;" class="s1" d="m202.37 365.77q-0.11-0.31-0.2-0.63c-0.4-0.07-0.78-0.13-1.24-0.03q-0.77 0.14-1.47 0.48-0.01 0.55 0.03 1.11c0.72-0.61 1.88-1.01 2.88-0.93z"/>
				<path id="&lt;Path&gt;" class="s1" d="m202.46 367.56q0.37-0.11 0.73-0.15-0.21-0.33-0.39-0.67c-1.06 0.07-2.45 0.38-3.15 1.22q0.08 0.48 0.22 0.96c0.59-0.78 1.58-1.19 2.59-1.36z"/>
				<path id="&lt;Path&gt;" class="s1" d="m202.18 369.34c0.64-0.36 1.27-0.49 1.93-0.66q-0.28-0.34-0.52-0.67c-1.15 0.17-2.29 0.47-3.12 1.25q-0.2 0.22-0.36 0.45 0.19 0.54 0.45 1.08c0.42-0.6 0.98-1.09 1.62-1.45z"/>
				<path id="&lt;Path&gt;" class="s1" d="m204.12 372.64c0.81-0.63 1.75-0.95 2.74-1.14q-0.41-0.38-0.78-0.75c-0.71 0.05-1.48 0.41-2.03 0.71-0.74 0.39-1.41 0.87-1.91 1.52q-0.01 0.02-0.01 0.03-0.03 0.05-0.06 0.08 0.35 0.42 0.77 0.84c0.34-0.52 0.86-0.96 1.28-1.29z"/>
				<path id="&lt;Path&gt;" class="s1" d="m208.42 372.95q-0.47-0.43-0.9-0.83c-1.48 0.17-3.38 1.02-4.09 2.41q0.28 0.3 0.55 0.61c0.96-1.27 2.88-2.14 4.44-2.19z"/>
				<path id="&lt;Path&gt;" class="s1" d="m209.75 374.41q-0.29-0.38-0.62-0.74c-0.64 0.19-1.35 0.2-1.99 0.43-1.07 0.38-1.86 0.98-2.5 1.87q0.33 0.44 0.63 0.88c0.89-1.43 2.77-2.31 4.48-2.44z"/>
				<path id="&lt;Path&gt;" class="s1" d="m211.03 376.36q-0.33-0.61-0.72-1.19c-1.81 0.16-3.56 0.91-4.56 2.48q0.27 0.45 0.49 0.9c1.38-1.22 2.94-2.22 4.79-2.19z"/>
				<path id="&lt;Path&gt;" class="s1" d="m208.51 377.83c-0.66 0.36-1.48 0.89-1.91 1.52q0.23 0.54 0.42 1.06c0.69-1.14 2.22-1.79 3.47-1.99 0.23-0.03 0.85-0.16 1.41-0.17q-0.2-0.52-0.44-1.04c-0.93-0.06-2 0.18-2.95 0.62z"/>
				<path id="&lt;Path&gt;" class="s1" d="m212.75 381.02q-0.16-0.7-0.38-1.44c-0.88-0.11-1.97 0.15-2.62 0.39-0.84 0.32-1.88 0.89-2.34 1.72q0.07 0.28 0.13 0.55c1.41-1.03 3.59-1.28 5.21-1.22z"/>
				<path id="&lt;Path&gt;" class="s1" d="m212.98 384.23q-1.07 0.05-2.13 0.25c-1.01 0.19-1.98 0.45-2.87 0.93 0.06 1.41-0.07 2.31-0.07 2.31 0 0 5 2.74 5.49-1.35 0 0 0.01-0.85-0.12-2.15q-0.16 0-0.3 0.01z"/>
				<path id="&lt;Path&gt;" class="s1" d="m208.2 384.41c1.47-0.9 3.25-1.31 4.97-1.17q-0.08-0.5-0.17-1.03-0.03-0.02-0.06-0.02c-0.91-0.08-1.92-0.06-2.89 0.13-0.84 0.25-1.63 0.65-2.26 1.18q0.08 0.55 0.13 1.05 0.14-0.08 0.28-0.14z"/>
				<path id="&lt;Path&gt;" class="s1" d="m205.25 369.93q-0.27-0.27-0.51-0.54c-1.44-0.02-3.19 0.92-3.69 2.28q0.24 0.41 0.53 0.8c0.74-1.34 2.15-2.33 3.67-2.54z"/>
				<path id="&lt;Path&gt;" class="s1" d="m201.99 364.33q-0.06-0.36-0.09-0.75c-0.76-0.16-1.75-0.29-2.29 0.24q-0.05 0.34-0.09 0.7 0.05-0.03 0.1-0.05c0.73-0.34 1.57-0.3 2.37-0.14z"/>
				<path id="&lt;Path&gt;" class="s1" d="m201.47 360.03c0.19 0.03 0.44 0.06 0.65 0.13q0.06-0.32 0.13-0.65-0.22-0.09-0.46-0.12-0.42-0.01-0.83 0.03-0.14 0.29-0.27 0.59c0.27-0.03 0.55-0.01 0.78 0.02z"/>
			</g>
			<g id="&lt;Group&gt;">
				<path id="&lt;Path&gt;" class="s0" d="m217.8 387.47c0 0-0.22-8.6 4.88-13.32 5.09-4.72 7.77-6.73 6.25-13.65 0 0-0.75-3.76 1.04-0.5 1.79 3.25 3.54 10.06-1.67 15.09-6.25 6.04-5.01 13.73-5.01 13.73 0 0-5 2.74-5.49-1.35z"/>
				<path id="&lt;Path&gt;" class="s1" d="m229.51 359.93q-0.35 0.06-0.65 0.2c-0.13-0.84-0.32-2.69 1.06-0.21q-0.2-0.02-0.41 0.01z"/>
				<path id="&lt;Path&gt;" class="s1" d="m229.49 362.63q-0.11 0.01-0.21 0.03-0.04-0.35-0.1-0.73 0.3-0.12 0.62-0.16c0.17-0.03 0.65-0.12 0.95-0.07q0.15 0.4 0.29 0.83c-0.48-0.15-1.03-0.03-1.55 0.1z"/>
				<path id="&lt;Path&gt;" class="s1" d="m229.33 363.84q0-0.28-0.01-0.59c0.62-0.2 1.31-0.27 1.92-0.04q0.09 0.35 0.18 0.72c-0.59-0.23-1.5-0.27-2.09-0.09z"/>
				<path id="&lt;Path&gt;" class="s1" d="m228.83 366.87q0.11-0.31 0.2-0.63c0.4-0.07 0.78-0.13 1.23-0.03q0.78 0.14 1.48 0.48 0.01 0.54-0.03 1.11c-0.72-0.61-1.88-1.01-2.88-0.93z"/>
				<path id="&lt;Path&gt;" class="s1" d="m228.74 368.66q-0.37-0.11-0.72-0.15 0.2-0.33 0.38-0.67c1.06 0.07 2.44 0.38 3.15 1.22q-0.08 0.47-0.22 0.96c-0.59-0.78-1.58-1.19-2.59-1.36z"/>
				<path id="&lt;Path&gt;" class="s1" d="m229.02 370.44c-0.63-0.36-1.27-0.49-1.93-0.65q0.28-0.34 0.52-0.69c1.15 0.18 2.29 0.48 3.12 1.27q0.2 0.21 0.36 0.44-0.19 0.54-0.45 1.08c-0.42-0.6-0.98-1.09-1.62-1.45z"/>
				<path id="&lt;Path&gt;" class="s1" d="m227.08 373.74c-0.81-0.63-1.75-0.95-2.74-1.14q0.41-0.38 0.78-0.74c0.71 0.03 1.48 0.4 2.03 0.7 0.75 0.39 1.41 0.87 1.91 1.53q0.01 0.01 0.02 0.02 0.02 0.05 0.05 0.08-0.35 0.42-0.77 0.84c-0.34-0.52-0.86-0.96-1.28-1.29z"/>
				<path id="&lt;Path&gt;" class="s1" d="m222.78 374.05q0.47-0.43 0.9-0.83c1.48 0.17 3.38 1.02 4.09 2.41q-0.29 0.31-0.55 0.61c-0.95-1.27-2.88-2.14-4.44-2.19z"/>
				<path id="&lt;Path&gt;" class="s1" d="m221.45 375.51q0.29-0.38 0.62-0.73c0.65 0.18 1.35 0.19 1.99 0.42 1.07 0.38 1.86 0.98 2.5 1.87q-0.33 0.44-0.62 0.89c-0.9-1.44-2.78-2.33-4.49-2.45z"/>
				<path id="&lt;Path&gt;" class="s1" d="m220.17 377.46q0.33-0.6 0.72-1.19c1.81 0.16 3.56 0.92 4.55 2.48q-0.25 0.45-0.48 0.9c-1.38-1.22-2.94-2.22-4.79-2.19z"/>
				<path id="&lt;Path&gt;" class="s1" d="m222.7 378.94c0.65 0.35 1.47 0.88 1.9 1.51q-0.23 0.54-0.42 1.06c-0.69-1.13-2.21-1.79-3.47-1.99-0.23-0.03-0.86-0.16-1.41-0.17q0.2-0.52 0.44-1.03c0.93-0.07 2.01 0.17 2.96 0.62z"/>
				<path id="&lt;Path&gt;" class="s1" d="m218.45 382.13q0.16-0.71 0.38-1.45c0.88-0.1 1.97 0.15 2.62 0.39 0.84 0.32 1.88 0.89 2.34 1.72q-0.07 0.28-0.13 0.55c-1.41-1.03-3.59-1.29-5.21-1.21z"/>
				<path id="&lt;Path&gt;" class="s1" d="m218.22 385.33q1.07 0.05 2.13 0.25c1.01 0.19 1.98 0.45 2.87 0.93-0.06 1.42 0.07 2.31 0.07 2.31 0 0-5 2.74-5.49-1.35 0 0-0.01-0.85 0.12-2.15q0.17 0.01 0.3 0.01z"/>
				<path id="&lt;Path&gt;" class="s1" d="m223 385.51c-1.47-0.9-3.25-1.31-4.96-1.17q0.06-0.5 0.16-1.04 0.03-0.01 0.06-0.01c0.91-0.08 1.92-0.06 2.89 0.13 0.84 0.25 1.63 0.65 2.27 1.17q-0.09 0.56-0.14 1.06-0.13-0.08-0.28-0.14z"/>
				<path id="&lt;Path&gt;" class="s1" d="m225.95 371.03q0.27-0.27 0.51-0.54c1.44-0.02 3.19 0.92 3.69 2.29q-0.24 0.4-0.53 0.78c-0.74-1.33-2.15-2.32-3.67-2.53z"/>
				<path id="&lt;Path&gt;" class="s1" d="m229.21 365.43q0.06-0.36 0.09-0.75c0.76-0.16 1.75-0.3 2.3 0.24q0.04 0.35 0.08 0.7-0.05-0.03-0.1-0.05c-0.73-0.34-1.57-0.3-2.37-0.14z"/>
				<path id="&lt;Path&gt;" class="s1" d="m229.73 361.13c-0.19 0.03-0.43 0.06-0.65 0.13q-0.06-0.31-0.13-0.65 0.22-0.09 0.47-0.12 0.41-0.01 0.82 0.04 0.14 0.28 0.27 0.58c-0.27-0.03-0.55-0.01-0.78 0.02z"/>
			</g>
			<g id="&lt;Group&gt;">
				<g id="&lt;Group&gt;">
					<path id="&lt;Path&gt;" class="s2" d="m213.2 509.64c0 0 0.31 4.93 1.87 7.33 1.06 1.14 3.04-1.62 3.83-4.1 0.77-2.48 1.69-4.67-2.7-6.16-1.98-0.36-2.82 0.9-3 2.93z"/>
					<path id="&lt;Compound Path&gt;" fill-rule="evenodd" class="s3" d="m215.64 517.34q-0.37 0-0.64-0.29c-1.57-2.42-1.89-7.2-1.9-7.41q0.33-3.52 3.12-3.03c4.31 1.45 3.61 3.65 2.87 5.97l-0.1 0.32c-0.66 2.1-2.2 4.44-3.35 4.44zm-0.07-10.59c-1.35 0-2.09 0.95-2.27 2.89 0.01 0.04 0.33 4.92 1.86 7.28q0.19 0.21 0.48 0.22c1.03 0 2.52-2.27 3.16-4.3l0.1-0.32c0.74-2.32 1.38-4.32-2.73-5.72q-0.31-0.05-0.6-0.05z"/>
				</g>
				<g id="&lt;Group&gt;" style="opacity: .5;mix-blend-mode: multiply">
					<path id="&lt;Path&gt;" class="s2" d="m216.2 506.71c-1.98-0.36-2.82 0.9-3 2.93 0 0 0.12 1.92 0.59 3.95q0.07-0.32 0.14-0.63c0.03-0.09 0.29-0.48 0.39-0.26 0.26 0.6 0.5 1.37 1.09-0.16q0.15-0.37 0.27-0.73 0.25-0.77 0.63-1.47c0.03-0.07 0.19-0.24 0.29-0.16 1.34 1.24 1.68 2.9 1.5 4.58 0.32-0.6 0.59-1.26 0.8-1.89 0.77-2.48 1.69-4.67-2.7-6.16z"/>
				</g>
				<g id="&lt;Group&gt;">
					<path id="&lt;Path&gt;" class="s4" d="m202.15 459.88c0 0-4.18 22.29-0.78 31.27 0.38 0.94-0.28 4.72 3.12 5 1.99 0.67 7.18 9.92 8.22 16.91 0.19 1.61 1.51-0.95 1.32-2.46 0.66 1.32 0.66 1.7 0.66 1.7 0 0 1.99-1.51 0.85-3.49 2.27-0.09 2.55-0.85 2.55-0.85l-1.51-0.76c0 0 2.08 0 2.27-1.98-1.7 0.19-2.46-0.94-5.48-5.39-3.02-4.43-5.2-6.7-6.61-7.83-1.42-1.14-0.38-3.88 1.04-7.56 1.41-3.68 4.15-11.99 4.15-14.26 0-2.27-4.87-8.06-9.8-10.3z"/>
					<path id="&lt;Compound Path&gt;" fill-rule="evenodd" class="s5" d="m212.98 513.67q-0.3 0-0.37-0.6c-1.08-7.23-6.33-16.21-8.15-16.82-2.69-0.22-2.9-2.64-3.03-4.08-0.04-0.42-0.07-0.78-0.15-0.99-1.76-4.65-1.46-12.92-0.9-19.05 0.62-6.62 1.66-12.22 1.67-12.28q0.01-0.05 0.05-0.07 0.05-0.02 0.09 0c4.76 2.17 9.86 7.96 9.86 10.4 0 2.28-2.71 10.52-4.16 14.3-1.36 3.54-2.44 6.34-1.07 7.44 1.28 1.02 3.47 3.21 6.63 7.86l0.08 0.11c2.75 4.03 3.57 5.25 4.98 5.25q0.15 0 0.32-0.02 0.05-0.01 0.09 0.03 0.03 0.03 0.03 0.08c-0.15 1.53-1.39 1.93-2.01 2.04l1.2 0.6q0.07 0.04 0.05 0.13c-0.01 0.03-0.32 0.78-2.48 0.91 0.99 1.96-0.94 3.46-0.96 3.47q-0.05 0.04-0.1 0.01-0.06-0.03-0.06-0.09c0 0-0.01-0.3-0.44-1.23-0.05 0.89-0.44 1.96-0.83 2.4q-0.18 0.2-0.34 0.2zm-10.75-53.65c-0.16 0.87-1.08 6.08-1.64 12.13-0.57 6.11-0.87 14.34 0.88 18.96 0.09 0.23 0.12 0.59 0.16 1.04 0.14 1.47 0.33 3.69 2.87 3.9 2.08 0.69 7.28 10.11 8.31 16.99 0.04 0.32 0.11 0.43 0.17 0.43 0.01 0 0.08-0.01 0.19-0.14 0.39-0.44 0.88-1.77 0.76-2.71q0-0.09 0.07-0.11 0.08-0.02 0.12 0.04c0.43 0.86 0.58 1.33 0.64 1.56 0.42-0.38 1.61-1.65 0.69-3.25q-0.02-0.05 0-0.1 0.03-0.05 0.09-0.05c1.71-0.07 2.25-0.53 2.41-0.71l-1.42-0.71q-0.06-0.03-0.05-0.11 0.02-0.07 0.1-0.08c0.08 0 1.9-0.02 2.15-1.77q-0.11 0.01-0.22 0.01c-1.52 0-2.36-1.24-5.15-5.33l-0.07-0.12c-3.15-4.62-5.33-6.8-6.59-7.82-1.49-1.18-0.39-4.05 1-7.67 1.41-3.66 4.15-12 4.15-14.22 0-2.15-4.64-7.83-9.62-10.16z"/>
				</g>
				<g id="&lt;Group&gt;">
					<g id="&lt;Group&gt;" style="opacity: .5;mix-blend-mode: multiply">
						<path id="&lt;Path&gt;" class="s4" d="m218.85 505.22c-1.7 0.19-2.46-0.94-5.48-5.39-3.02-4.43-5.2-6.7-6.61-7.83-1.42-1.14-0.38-3.88 1.04-7.56 1.41-3.68 4.15-11.99 4.15-14.26 0-2.27-4.87-8.06-9.8-10.3 0 0-0.93 4.95-1.55 11.13 0.38-2.25 1.24-5.13 3.11-4.24 2.98 1.42 3.93 5.4 2.13 11.76-1.84 6.52-2.83 10.91-1.7 12.75 1.13 1.84 1.7 4.11-0.71 3.68-0.48-0.08-0.99-0.33-1.5-0.67 0.36 0.94 1.07 1.74 2.56 1.86 1.99 0.67 7.18 9.92 8.22 16.91 0.19 1.61 1.51-0.95 1.32-2.46 0.66 1.32 0.66 1.7 0.66 1.7 0 0 1.99-1.51 0.85-3.49 2.27-0.09 2.55-0.85 2.55-0.85l-1.51-0.76c0 0 2.08 0 2.27-1.98z"/>
					</g>
				</g>
				<g id="&lt;Group&gt;">
					<g id="&lt;Group&gt;" style="opacity: .5;mix-blend-mode: multiply">
						<path id="&lt;Path&gt;" class="s4" d="m218.85 505.22c-1.7 0.19-2.46-0.94-5.48-5.39-3.02-4.43-5.2-6.7-6.61-7.83-1.42-1.14-0.38-3.88 1.04-7.56 1.41-3.68 4.15-11.99 4.15-14.26 0-2.27-4.87-8.06-9.8-10.3 0 0-0.19 1-0.45 2.67 1.26 1.76 3.46 4.59 5.6 6.2-0.55-1.09-0.55-1.09-0.55-1.09 0 0 1.23 1.77 2.59 2.72 1.09 0.82 0 6.27-1.91 11.72-1.9 5.45-3.81 8.58-1.08 10.9 2.72 2.31 6.16 6.07 7.52 10.1 0.99 2.67 2.44 3.17 3.07 2.85-0.81 0.77-2.31 0.36-2.31 0.36 0 0 0.55 1.09 1.86 1.31-1.36 0.59-2.76-0.31-2.76-0.31 0 0 1.85 1.9 1.4 3.03-0.58-1.36-2.03-2.13-2.03-2.13 0 0 0.28 2.36-0.59 3.74q0.12 0.56 0.2 1.11c0.19 1.61 1.51-0.95 1.32-2.46 0.66 1.32 0.66 1.7 0.66 1.7 0 0 1.99-1.51 0.85-3.49 2.27-0.09 2.55-0.85 2.55-0.85l-1.51-0.76c0 0 2.08 0 2.27-1.98z"/>
					</g>
				</g>
				<g id="&lt;Group&gt;">
					<g id="&lt;Group&gt;">
						<path id="&lt;Path&gt;" class="s4" d="m239.01 433.84c0 0 3.63-3.88 1.66-9.6-0.32-0.83 1.97 0.95 2.41 2.41 0.13-1.46 0.07-1.97 0.07-1.97 0 0 4.51 3.18 2.79 8.27 0.7-0.64 0.83-1.34 0.83-1.34 0 0 1.97 3.05-0.76 6.23-1.72-1.91-4.83-4-7-4z"/>
						<path id="&lt;Compound Path&gt;" fill-rule="evenodd" class="s5" d="m246.01 437.94q-0.05 0-0.08-0.03c-1.76-1.95-4.82-3.97-6.92-3.97q-0.06-0.01-0.09-0.06-0.02-0.06 0.02-0.11c0.04-0.04 3.56-3.91 1.63-9.49-0.03-0.08-0.06-0.19-0.01-0.28q0.03-0.06 0.16-0.07c0.4 0 1.74 1.19 2.29 2.29 0.08-1.1 0.03-1.52 0.03-1.52q0-0.07 0.05-0.1 0.06-0.03 0.11 0c0.05 0.04 4.31 3.11 2.97 7.96 0.41-0.5 0.5-0.96 0.5-0.97q0.01-0.06 0.08-0.08 0.07-0.01 0.11 0.05c0.01 0.03 1.97 3.15-0.78 6.35q-0.03 0.03-0.07 0.03zm-6.78-4.2c2.1 0.13 5.03 2.06 6.77 3.94 1.31-1.58 1.44-3.11 1.31-4.13-0.1-0.77-0.36-1.38-0.51-1.67-0.1 0.26-0.32 0.72-0.79 1.14q-0.06 0.05-0.12 0.01-0.06-0.04-0.05-0.11c1.48-4.39-1.78-7.37-2.58-8.02 0.01 0.28 0.01 0.83-0.07 1.76q-0.02 0.08-0.1 0.09-0.08 0.01-0.11-0.06c-0.35-1.17-1.89-2.49-2.24-2.56q0.01 0.03 0.02 0.07c1.75 5.06-0.88 8.74-1.53 9.54z"/>
					</g>
					<g id="&lt;Group&gt;">
						<path id="&lt;Path&gt;" class="s4" d="m239.01 433.84c0 0 3.63-3.88 1.66-9.6-0.32-0.83 1.97 0.95 2.41 2.41 0.13-1.46 0.07-1.97 0.07-1.97 0 0 4.51 3.18 2.79 8.27 0.7-0.64 0.83-1.34 0.83-1.34 0 0 1.97 3.05-0.76 6.23-1.72-1.91-4.83-4-7-4z"/>
						<path id="&lt;Compound Path&gt;" fill-rule="evenodd" class="s5" d="m246.01 437.94q-0.05 0-0.08-0.03c-1.76-1.95-4.82-3.97-6.92-3.97q-0.06-0.01-0.09-0.06-0.02-0.06 0.02-0.11c0.04-0.04 3.56-3.91 1.63-9.49-0.03-0.08-0.06-0.19-0.01-0.28q0.03-0.06 0.16-0.07c0.4 0 1.74 1.19 2.29 2.29 0.08-1.1 0.03-1.52 0.03-1.52q0-0.07 0.05-0.1 0.06-0.03 0.11 0c0.05 0.04 4.31 3.11 2.97 7.96 0.41-0.5 0.5-0.96 0.5-0.97q0.01-0.06 0.08-0.08 0.07-0.01 0.11 0.05c0.01 0.03 1.97 3.15-0.78 6.35q-0.03 0.03-0.07 0.03zm-6.78-4.2c2.1 0.13 5.03 2.06 6.77 3.94 1.31-1.58 1.44-3.11 1.31-4.13-0.1-0.77-0.36-1.38-0.51-1.67-0.1 0.26-0.32 0.72-0.79 1.14q-0.06 0.05-0.12 0.01-0.06-0.04-0.05-0.11c1.48-4.39-1.78-7.37-2.58-8.02 0.01 0.28 0.01 0.83-0.07 1.76q-0.02 0.08-0.1 0.09-0.08 0.01-0.11-0.06c-0.35-1.17-1.89-2.49-2.24-2.56q0.01 0.03 0.02 0.07c1.75 5.06-0.88 8.74-1.53 9.54z"/>
					</g>
					<g id="&lt;Group&gt;" style="opacity: .5;mix-blend-mode: multiply">
						<path id="&lt;Path&gt;" class="s4" d="m246.77 431.61c0 0-0.13 0.7-0.83 1.34 1.26-3.73-0.82-6.43-2.03-7.61q0.21 0.3 0.45 0.62c3.07 4.09 0.82 7.66 0.82 7.66 0 0 0.97 0.41 1.53-0.1 0.15 1.28-0.62 2.81-0.82 1.94-0.2-0.87-1.63-1.73-3.32-2.35-1.68-0.61-1.43-1.68-0.66-3.27 0.65-2.08-0.32-4.39-1.1-5.79-0.15-0.05-0.21 0-0.14 0.19 1.97 5.72-1.66 9.6-1.66 9.6 2.17 0 5.28 2.09 7 4 2.73-3.18 0.76-6.23 0.76-6.23z"/>
					</g>
					<g id="&lt;Group&gt;" style="opacity: .8;mix-blend-mode: screen">
						<path id="&lt;Path&gt;" class="s4" d="m243.24 427.23c-0.24-1.04-0.92-1.77-1.67-2.5-0.03-0.03-0.07 0.05-0.06 0.07 1.06 1.93 1.47 3.78 1.29 5.98-0.03 0.34 0.36 0.03 0.42-0.12 0.44-1.11 0.28-2.29 0.02-3.43z"/>
					</g>
					<g id="&lt;Group&gt;" style="opacity: .8;mix-blend-mode: screen">
						<path id="&lt;Path&gt;" class="s4" d="m244.05 425.84c-0.03-0.04-0.09 0.07-0.07 0.1 1.14 2.14 1.39 4.6 0.87 6.94-0.11 0.53 0.47 0.16 0.55-0.14 0.59-2.23 0.34-5.19-1.35-6.9z"/>
					</g>
				</g>
				<g id="&lt;Group&gt;">
					<path id="&lt;Path&gt;" class="s2" d="m222.71 497.04c0 0-1.24 2.05-1.59 4.46-0.24 2.05 0.89 1.94 3.41 1.66 2.52-0.27 3.03-0.81 2.8-3.1-0.24-2.28-3.34-5.51-4.62-3.02z"/>
					<path id="&lt;Compound Path&gt;" fill-rule="evenodd" class="s3" d="m222.65 503.42c-0.69 0-1.11-0.13-1.36-0.42-0.27-0.3-0.36-0.78-0.27-1.52 0.34-2.4 1.59-4.47 1.6-4.5q0.49-0.93 1.35-0.94c1.51 0 3.29 2.33 3.46 4.01 0.23 2.34-0.31 2.94-2.89 3.22-0.74 0.08-1.38 0.15-1.89 0.15zm1.32-7.18q-0.74 0-1.17 0.84c-0.02 0.03-1.24 2.07-1.58 4.43q-0.12 0.99 0.22 1.35c0.21 0.25 0.58 0.35 1.21 0.35 0.5 0 1.13-0.07 1.87-0.15 2.48-0.26 2.93-0.76 2.71-2.99-0.19-1.75-1.95-3.83-3.26-3.83z"/>
				</g>
				<g id="&lt;Group&gt;" style="opacity: .5;mix-blend-mode: multiply">
					<path id="&lt;Path&gt;" class="s2" d="m227.33 500.06c-0.24-2.28-3.34-5.51-4.62-3.02 0 0-0.79 1.3-1.28 3.04 0.42-0.33 0.85-0.33 1.23 0.46 0.52-0.6 1.08-1.04 1.86-1.29q0.09-0.03 0.13 0.04c0.72 1.29 0.79 2.55 0.54 3.79 1.95-0.31 2.34-0.95 2.14-3.02z"/>
				</g>
				<g id="&lt;Group&gt;">
					<path id="&lt;Path&gt;" class="s2" d="m226.74 514.6c0 0-1.31 4.55-1.21 8.7-0.1 2.43 2.83 1.83 4.81 1.22 1.97-0.61 3.09-1.52 2.99-2.64-0.11-1.11-1.42-6.62-1.42-6.62 0 0-3.29-5.32-5.17-0.66z"/>
					<path id="&lt;Compound Path&gt;" fill-rule="evenodd" class="s3" d="m227.47 525.17q-1.12-0.01-1.63-0.54-0.45-0.47-0.41-1.33c-0.1-4.11 1.2-8.68 1.21-8.73q0.8-1.98 2.08-1.99c1.63 0 3.21 2.51 3.27 2.63q0.01 0.01 0.02 0.03c0.05 0.22 1.32 5.53 1.41 6.64 0.11 1.12-0.98 2.09-3.05 2.74q-1.79 0.55-2.9 0.55zm1.25-12.38q-1.14 0-1.88 1.85c-0.01 0.03-1.31 4.57-1.21 8.66q-0.03 0.78 0.36 1.19 0.45 0.47 1.48 0.47 1.08 0 2.84-0.54c1.97-0.61 3.01-1.5 2.91-2.52-0.09-1.07-1.33-6.27-1.41-6.6-0.13-0.2-1.63-2.51-3.09-2.51z"/>
				</g>
				<g id="&lt;Group&gt;" style="opacity: .5;mix-blend-mode: multiply">
					<path id="&lt;Path&gt;" class="s2" d="m231.91 515.26c0 0-3.29-5.32-5.17-0.66 0 0-0.63 2.2-0.99 4.94 0.5-0.42 1.04-0.5 1.63 0.26 0.2-0.37 0.44-0.67 0.8-0.95 0.04-0.04 0.18-0.11 0.23-0.01q0.22 0.83 1.3 0.46c0.08-0.04 0.18-0.02 0.2 0.08 0.47 1.87 0.28 3.73-0.45 5.38q0.46-0.11 0.88-0.24c1.97-0.61 3.09-1.52 2.99-2.64-0.11-1.11-1.42-6.62-1.42-6.62z"/>
				</g>
				<g id="&lt;Group&gt;">
					<path id="&lt;Path&gt;" class="s2" d="m242.28 499.56c0 0-0.6 1.88-0.5 4.61 0.05 1.88 2.07 1.52 3.84 1.27 1.77-0.25 3.55-0.76 3.34-1.78-0.2-1.01-0.86-2.78-0.86-2.78 0 0-4.45-5.01-5.82-1.32z"/>
					<path id="&lt;Compound Path&gt;" fill-rule="evenodd" class="s3" d="m243.64 505.74c-0.83 0-1.93-0.16-1.96-1.57-0.11-2.72 0.5-4.62 0.5-4.64q0.54-1.42 1.73-1.42c1.84 0 4.17 2.59 4.27 2.7q0.01 0.02 0.02 0.04c0.03 0.07 0.66 1.79 0.87 2.79q0.06 0.36-0.15 0.68-0.6 0.83-3.29 1.22l-0.16 0.02c-0.62 0.09-1.26 0.18-1.83 0.18zm0.27-7.43q-1.05 0-1.53 1.29c-0.01 0.01-0.6 1.89-0.5 4.56 0.02 0.96 0.57 1.38 1.76 1.38 0.56 0 1.19-0.09 1.8-0.18l0.17-0.02c1.7-0.25 2.79-0.64 3.14-1.14q0.17-0.24 0.12-0.52c-0.19-0.93-0.78-2.56-0.85-2.75-0.19-0.2-2.43-2.62-4.11-2.62z"/>
				</g>
				<g id="&lt;Group&gt;" style="opacity: .5;mix-blend-mode: multiply">
					<path id="&lt;Path&gt;" class="s2" d="m248.96 503.66c-0.2-1.01-0.86-2.78-0.86-2.78 0 0-4.45-5.01-5.82-1.32 0 0-0.42 1.34-0.5 3.4q0 0 0.01 0.01c0.07 0.08 0.69 1.08 0.74 1.02q0.36-0.42 0.73-0.84c0.25-0.28 0.68-0.63 1.07-0.65 0.87-0.03 1.52 0.41 1.76 1.25q0.23 0.76 0.25 1.57c1.5-0.28 2.8-0.78 2.62-1.66z"/>
				</g>
				<g id="&lt;Group&gt;">
					<path id="&lt;Path&gt;" class="s6" d="m220.38 472.37c0 0 0.74 4.31 3.49 8.77 1.86 3.64 2.98 4.98 0.08 9.44-2.9 4.46-3.27 6.1-2.9 8.63 0 1.19 1.78-1.56 1.78-1.56l-0.15 1.56 1.86-1.27c0 0 0 0.6 0.3 0.9 0.3 0.29 3.79-0.9 3.87-2.9 0.07-2.01 4.52-9.21 5.3-12.53 0.77-3.31-0.56-7.85-2.77-12.61-7.96 1.11-10.86 1.57-10.86 1.57z"/>
					<path id="&lt;Compound Path&gt;" fill-rule="evenodd" class="s5" d="m221.2 499.61c-0.12 0-0.25-0.07-0.25-0.4-0.37-2.52 0.01-4.21 2.91-8.68 2.65-4.08 1.92-5.49 0.32-8.57q-0.19-0.37-0.4-0.77c-2.72-4.42-3.49-8.76-3.5-8.8q-0.01-0.05 0.01-0.08 0.03-0.04 0.07-0.04c0.03-0.01 2.99-0.47 10.87-1.57q0.07 0 0.1 0.06c2.54 5.44 3.47 9.71 2.77 12.68-0.38 1.65-1.64 4.2-2.86 6.67-1.24 2.48-2.4 4.84-2.44 5.83-0.06 1.9-3.02 3.04-3.78 3.04q-0.18 0-0.25-0.07c-0.22-0.22-0.29-0.57-0.32-0.78l-1.71 1.16q-0.05 0.04-0.11 0.01-0.05-0.04-0.05-0.1l0.11-1.16c-0.39 0.57-1.13 1.57-1.49 1.57zm-0.7-27.16c0.13 0.68 0.98 4.62 3.46 8.64q0.21 0.41 0.4 0.78c0.82 1.57 1.4 2.7 1.46 3.98 0.06 1.34-0.48 2.77-1.79 4.79-2.89 4.45-3.25 6.04-2.88 8.55q0.01 0.22 0.05 0.22c0.23 0 0.97-0.93 1.55-1.82q0.04-0.06 0.12-0.04 0.06 0.03 0.06 0.11l-0.12 1.34 1.68-1.14q0.05-0.03 0.1-0.01 0.05 0.03 0.05 0.09c0 0.01 0.01 0.56 0.27 0.82q-0.01 0.01 0.11 0.02c0.7 0 3.52-1.1 3.58-2.85 0.04-1.04 1.21-3.41 2.45-5.91 1.22-2.46 2.48-5 2.86-6.63 0.68-2.91-0.24-7.11-2.73-12.47-7.01 0.97-10.1 1.44-10.68 1.53z"/>
				</g>
				<g id="&lt;Group&gt;" style="opacity: .5;mix-blend-mode: multiply">
					<path id="&lt;Path&gt;" class="s6" d="m231.24 470.8c-7.96 1.11-10.86 1.57-10.86 1.57 0 0 0.13 0.72 0.46 1.88 0.75 0.13 1.24 0.77 1.64 1.59 0.65 1.35 1.39 2.68 1.88 4.09 0.42 1.18 0.71 2.42 0.72 3.62 0.75 1.64 0.95 2.97-0.01 5.06q0.17-0.03 0.34-0.01c0.64 0.09 0.5 1.37 0.45 1.74-0.13 0.8-0.48 1.44-0.78 2.18-0.51 1.31-0.25 2.52 0.05 3.83 0.04 0.17-0.21 0.58-0.38 0.38-0.31-0.37-0.53-0.79-0.8-1.19-0.41 1.21-1.65 1.9-3.02 2.35q0.01 0.63 0.12 1.32c0 1.19 1.78-1.56 1.78-1.56l-0.15 1.56 1.86-1.27c0 0 0 0.6 0.3 0.9 0.3 0.29 3.79-0.9 3.87-2.9 0.07-2.01 4.52-9.21 5.3-12.53 0.77-3.31-0.56-7.85-2.77-12.61z"/>
				</g>
				<g id="&lt;Group&gt;">
					<path id="&lt;Path&gt;" class="s4" d="m246.36 437.47c7.76 10.47 2.71 18.23 0.99 26.26-1.71 8.03 1 9.57 2.53 9.84 1.53 0.27 1.45 0.45 1.36 3.34-0.09 2.89-1.18 6.95-2.35 11.91-1.18 4.96-1.35 7.95-0.18 8.84 1.17 0.91 1.44 1.55 1.44 1.55l-2.35-0.64c0 0 1.81 1.98 1.09 2.89-3.52 1.62-4.78-0.45-4.78-0.45l-1.45 2.43c0 0-0.09-2.98 0-3.25 0.09-0.26-0.81 0.36-1.98 2.53-0.27-3.25 2.7-8.67 4.69-14.53 1.98-5.87-0.4-8.93-0.4-8.93-5.66 0.66-7.6-6.17-7.04-10.61-0.91 0.92-1.63 1.27-1.63 1.27 0 0-0.76 4.08-2.08 8.24-1.31 4.15-2.95 13.14-2.67 14.76 0.28 1.62 0.28 2.68-0.22 4.59-1.12 4.16 0.43 12.54 1.27 15.29 0.85 2.75 0.29 4.58-0.84 5.08 0.42-1.06 0.21-1.62 0.21-1.62l-1.41 2.18-0.64-1.06c0 0-0.14 0.43-0.21 1.27-1.83-0.49-2.18-1.9-2.18-1.9 0 0-0.08 0.78 0.35 1.98-1.48-0.57-1.41-3.25-1.41-3.25 0 0-0.49 0.71-0.85 2.12-0.77-1.83-0.63-1.83 0.22-6.7 0.84-4.86 0.98-9.94 1.33-14.74-1.19-1.2-1.19-1.54-0.77-3.94 0.42-2.4 0.28-4.87-0.42-9.38-0.71-4.51-1.96-7.82-2.41-9.89-0.65 0.3-7.39 1.01-12.82-2.76-5.18-3.77-4.96-7.08-4.96-7.08 0 0-0.49 1 0.2 2.69-7.48-7.08-4.99-9.88 0.49-17.72 4.84-6.94 4.96-19.82 4.96-19.82 0 0 4.62 0.16 6.14-6.37 0.81-3.85 4.31-4.66 9.56-6.76 0 0-2.69 8.86-3.5 15.85-0.82 6.99 0.58 8.63 0.58 8.63 0 0 1.38 0.84 3.17-1.13 2.47-2.74 3.61-5.85 4.95-5.92 1.34-0.06 10-0.1 14.02 4.91z"/>
					<path id="&lt;Compound Path&gt;" fill-rule="evenodd" class="s5" d="m227.88 518.82q-0.02 0.01-0.03 0c-1.21-0.46-1.43-2.2-1.48-2.97-0.17 0.33-0.44 0.92-0.65 1.77q-0.01 0.07-0.09 0.08-0.07 0-0.1-0.06c-0.7-1.65-0.66-1.86-0.05-5.28q0.11-0.65 0.25-1.48c0.64-3.68 0.88-7.5 1.11-11.19 0.07-1.15 0.14-2.34 0.23-3.48-1.19-1.2-1.2-1.59-0.77-4.01 0.41-2.33 0.3-4.69-0.42-9.35-0.48-3.03-1.19-5.47-1.75-7.44q-0.4-1.34-0.64-2.32c-0.36 0.1-1.25 0.22-2.46 0.22-2.23 0-6.53-0.39-10.34-3.04-3.88-2.82-4.75-5.36-4.95-6.52-0.05 0.45-0.01 1.14 0.35 2.02q0.02 0.07-0.04 0.12-0.07 0.04-0.12-0.01c-7.26-6.86-5.18-9.81-0.18-16.94l0.64-0.92c2.49-3.56 3.71-8.75 4.28-12.46 0.63-4.04 0.66-7.26 0.67-7.3q0-0.04 0.03-0.07 0.03-0.03 0.07-0.03 0 0 0 0c0.5 0 4.62-0.18 6.04-6.29 0.72-3.4 3.48-4.47 7.66-6.07q0.93-0.36 1.96-0.76 0.06-0.03 0.1 0.01 0.05 0.05 0.04 0.11c-0.03 0.08-2.69 8.93-3.5 15.83-0.76 6.53 0.43 8.37 0.55 8.54 0.06 0.03 0.32 0.15 0.71 0.15 0.52 0 1.35-0.22 2.31-1.27 1.03-1.14 1.81-2.32 2.51-3.36 0.98-1.48 1.69-2.55 2.52-2.59q0.22-0.01 0.68-0.01c2.22 0 9.73 0.35 13.42 4.95 6.24 8.42 4.25 15.09 2.32 21.54-0.47 1.57-0.96 3.21-1.31 4.81-0.84 3.94-0.72 6.74 0.37 8.35 0.63 0.94 1.48 1.26 2.08 1.37 1.54 0.27 1.53 0.53 1.45 3.01l-0.01 0.43c-0.08 2.46-0.89 5.83-1.83 9.73q-0.25 1.07-0.52 2.21c-1.22 5.14-1.29 7.92-0.22 8.74 1.18 0.91 1.47 1.55 1.47 1.57q0.03 0.06-0.01 0.11-0.04 0.04-0.11 0.03l-2.02-0.55c0.46 0.58 1.48 2 0.87 2.77q-0.02 0.02-0.04 0.03-1.37 0.63-2.5 0.63c-1.37 0-2.07-0.69-2.32-0.99l-1.36 2.3q-0.04 0.07-0.11 0.05-0.07-0.02-0.08-0.1c-0.01-0.27-0.07-2.52-0.02-3.14-0.26 0.2-0.94 0.93-1.77 2.47q-0.04 0.06-0.11 0.05-0.08-0.02-0.09-0.09c-0.18-2.2 1.09-5.33 2.56-8.96 0.73-1.81 1.49-3.67 2.14-5.61 1.82-5.36-0.07-8.39-0.35-8.8-1.93 0.22-3.56-0.42-4.82-1.85-1.97-2.23-2.56-5.95-2.3-8.59-0.7 0.67-1.25 0.98-1.41 1.07-0.09 0.47-0.85 4.33-2.07 8.2-1.32 4.18-2.95 13.12-2.67 14.71 0.26 1.55 0.3 2.63-0.22 4.63-1.12 4.15 0.45 12.59 1.27 15.24 0.9 2.93 0.2 4.72-0.9 5.2q-0.06 0.03-0.11-0.02-0.05-0.05-0.03-0.11c0.25-0.62 0.27-1.06 0.25-1.31l-1.27 1.97q-0.02 0.04-0.08 0.04-0.06 0-0.09-0.05l-0.51-0.85q-0.07 0.31-0.15 1.02 0 0.05-0.04 0.08-0.04 0.02-0.09 0.01c-1.18-0.32-1.76-1-2.04-1.47 0.04 0.33 0.13 0.82 0.34 1.41q0.02 0.06-0.03 0.11-0.03 0.02-0.07 0.02zm-1.41-3.44q0.02 0 0.03 0.01 0.07 0.03 0.07 0.09c0 0.03-0.04 2.35 1.13 3.05-0.33-1.07-0.28-1.76-0.28-1.79q0.02-0.08 0.1-0.09 0.08 0 0.11 0.07c0 0.02 0.34 1.3 1.99 1.8 0.08-0.77 0.2-1.15 0.21-1.17q0.02-0.06 0.08-0.06 0.07-0.01 0.1 0.04l0.55 0.92 1.32-2.04q0.04-0.06 0.1-0.05 0.06 0.01 0.09 0.06c0 0.03 0.18 0.52-0.12 1.44 0.88-0.59 1.35-2.24 0.56-4.83-0.83-2.67-2.41-11.16-1.27-15.36 0.5-1.95 0.47-3.02 0.21-4.53-0.28-1.61 1.34-10.61 2.68-14.81 1.29-4.1 2.06-8.19 2.07-8.23q0.01-0.05 0.05-0.07c0.01-0.01 0.72-0.36 1.61-1.25q0.05-0.04 0.11-0.02 0.07 0.03 0.06 0.1c-0.33 2.61 0.23 6.45 2.22 8.72 1.23 1.39 2.83 2 4.7 1.78q0.06-0.01 0.1 0.03c0.02 0.03 2.39 3.18 0.41 9.03-0.66 1.95-1.41 3.82-2.14 5.63-1.38 3.41-2.58 6.38-2.56 8.51 0.86-1.52 1.64-2.33 1.88-2.33 0.03 0 0.09 0.03 0.11 0.05q0.04 0.06 0.01 0.14c-0.06 0.18-0.04 1.73-0.01 2.87l1.27-2.14q0.03-0.05 0.09-0.05 0.05 0 0.08 0.05c0.01 0.01 0.65 1.03 2.24 1.03q1.08 0 2.39-0.61c0.62-0.83-1.07-2.72-1.09-2.74q-0.04-0.05-0.01-0.11 0.04-0.06 0.12-0.05l2.1 0.57c-0.17-0.25-0.55-0.71-1.29-1.29-1.16-0.89-1.11-3.65 0.14-8.95q0.27-1.14 0.52-2.2c0.94-3.89 1.75-7.26 1.82-9.7l0.02-0.43c0.08-2.46 0.08-2.56-1.29-2.8-0.63-0.11-1.54-0.46-2.21-1.46-1.12-1.65-1.25-4.51-0.39-8.5 0.34-1.62 0.83-3.25 1.3-4.83 1.91-6.4 3.89-13.02-2.28-21.35-3.63-4.52-11.07-4.88-13.26-4.88q-0.45 0.01-0.67 0.02c-0.73 0.03-1.45 1.12-2.37 2.49-0.69 1.05-1.48 2.24-2.52 3.38-1.01 1.11-1.89 1.35-2.46 1.35-0.51 0-0.82-0.18-0.83-0.2q-0.02-0.01-0.03-0.02c-0.06-0.06-1.41-1.74-0.6-8.7 0.74-6.34 3.04-14.31 3.44-15.67q-0.92 0.37-1.77 0.69c-4.12 1.58-6.83 2.63-7.53 5.92-0.62 2.64-1.8 4.52-3.51 5.59-1.2 0.76-2.29 0.86-2.63 0.87-0.01 0.57-0.1 3.57-0.67 7.22-0.58 3.73-1.79 8.95-4.31 12.55l-0.65 0.92c-4.99 7.12-6.91 9.85-0.16 16.37-0.48-1.47-0.07-2.33-0.05-2.36q0.04-0.07 0.12-0.06 0.08 0.03 0.08 0.11c0 0.03-0.16 3.3 4.91 6.99 3.75 2.61 8.01 3 10.22 3 1.34 0 2.28-0.15 2.49-0.25q0.05-0.02 0.09 0 0.04 0.02 0.06 0.07 0.23 1.01 0.65 2.42c0.57 1.98 1.28 4.43 1.76 7.47 0.73 4.69 0.84 7.06 0.42 9.41-0.42 2.39-0.43 2.69 0.75 3.87q0.03 0.02 0.03 0.07c-0.09 1.16-0.16 2.37-0.24 3.53-0.23 3.7-0.46 7.53-1.11 11.22q-0.14 0.82-0.26 1.48c-0.57 3.22-0.62 3.53-0.07 4.88 0.35-1.22 0.77-1.83 0.79-1.86q0.03-0.04 0.08-0.04z"/>
				</g>
				<g id="&lt;Group&gt;">
					<path id="&lt;Path&gt;" class="s7" d="m224.42 463.24c1.01-2.58 0.72-3.52-1.29-6.61 1.44 0.72 2.52 2.52 2.52 2.52 0.14-4.02-2.88-5.18-2.88-5.18 0 0 1.37 0.22 2.37 0.79-0.79-4.23-7.04-9.76-11.35-10.05-2.51-0.17-5.6 2.08-7.75 3.98-5.17 7.38-7.33 10.22-0.05 17.11-0.69-1.69-0.2-2.69-0.2-2.69 0 0-0.22 3.31 4.96 7.08 5.43 3.77 12.17 3.06 12.82 2.76-0.36-1.84-0.15-7.13 0.85-9.71z"/>
				</g>
				<g id="&lt;Group&gt;">
					<path id="&lt;Path&gt;" class="s5" d="m236.05 464.46q-0.2-1.51-0.51-3c-0.2-0.91-0.64-1.73-0.85-2.63-0.03-0.09-0.15 0.06-0.14 0.12 0.29 1.6 0.91 3.07 1.08 4.72 0.23 2.03 0.38 4.01 0.44 6.05 0 0.18 0.21-0.02 0.22-0.12 0.04-1.72 0-3.43-0.24-5.14z"/>
					<path id="&lt;Path&gt;" class="s5" d="m244.1 447.71c-0.18-1.79-0.73-4.24-2.17-5.46-0.04-0.04-0.12 0.09-0.09 0.13 1.33 1.38 1.73 3.76 1.95 5.6 0.3 2.58-0.01 5.2-0.53 7.73-0.95 4.56-3.48 8.31-5.38 12.47-0.14 0.3 0.18 0.24 0.28 0.03 2.19-4.51 4.69-8.61 5.63-13.62 0.42-2.27 0.54-4.58 0.31-6.88z"/>
					<path id="&lt;Path&gt;" class="s5" d="m227.92 443.95c-0.8-0.58-1.5-1.15-2.13-1.93-0.63-0.77-1.08-1.66-1.58-2.52-0.02-0.04-0.07 0.04-0.06 0.07 0.75 1.78 1.82 3.72 3.64 4.59 0.09 0.04 0.21-0.15 0.13-0.21z"/>
					<path id="&lt;Path&gt;" class="s5" d="m247.63 478.27q-0.61 0.4-1.3 0.66c-0.46 0.17-0.93 0.15-1.38 0.3-0.03 0.01-0.08 0.1-0.02 0.09 0.23-0.03 0.44 0.03 0.67 0q0.42-0.06 0.83-0.2c0.44-0.15 0.87-0.37 1.22-0.7 0.03-0.03 0.09-0.22-0.02-0.15z"/>
				</g>
				<g id="&lt;Group&gt;">
					<path id="&lt;Path&gt;" class="s7" d="m237.6 456.98c-0.22 0.74-0.73 1.23-1.12 1.11-0.4-0.12-0.54-0.81-0.31-1.55 0.22-0.74 0.72-1.24 1.12-1.12 0.4 0.12 0.54 0.82 0.31 1.56z"/>
					<path id="&lt;Path&gt;" class="s7" d="m239.78 455.11c-0.15 0.52-0.5 0.87-0.78 0.78-0.27-0.08-0.37-0.57-0.21-1.08 0.15-0.51 0.5-0.86 0.78-0.77 0.27 0.08 0.37 0.56 0.21 1.07z"/>
					<path id="&lt;Path&gt;" class="s7" d="m238.76 444.25c-0.09 0.82-0.52 1.45-0.97 1.4-0.44-0.04-0.73-0.75-0.64-1.58 0.09-0.82 0.52-1.45 0.96-1.41 0.45 0.05 0.74 0.76 0.65 1.59z"/>
					<path id="&lt;Path&gt;" class="s7" d="m246.86 455.46c-0.2 0.64-0.64 1.07-0.98 0.97-0.34-0.1-0.46-0.71-0.27-1.35 0.19-0.64 0.63-1.07 0.97-0.97 0.35 0.11 0.47 0.71 0.28 1.35z"/>
					<path id="&lt;Path&gt;" class="s7" d="m246.5 445.26c-0.19 0.64-0.63 1.07-0.97 0.97-0.35-0.11-0.47-0.71-0.27-1.35 0.19-0.64 0.63-1.07 0.97-0.97 0.35 0.11 0.47 0.71 0.27 1.35z"/>
					<path id="&lt;Path&gt;" class="s7" d="m234.32 439.46c-0.19 0.64-0.63 1.07-0.98 0.97-0.34-0.1-0.46-0.71-0.26-1.35 0.19-0.64 0.62-1.07 0.97-0.97 0.34 0.11 0.47 0.71 0.27 1.35z"/>
					<path id="&lt;Path&gt;" class="s7" d="m240 439.3c-0.16 0.51-0.5 0.86-0.77 0.78-0.28-0.09-0.38-0.57-0.22-1.08 0.16-0.51 0.5-0.85 0.78-0.77 0.27 0.08 0.37 0.57 0.21 1.07z"/>
					<path id="&lt;Path&gt;" class="s7" d="m243.7 463.16c-0.11 0.37-0.36 0.62-0.56 0.56-0.2-0.06-0.27-0.41-0.16-0.78 0.11-0.37 0.37-0.61 0.57-0.56 0.19 0.07 0.26 0.41 0.15 0.78z"/>
					<path id="&lt;Path&gt;" class="s7" d="m241.8 449.79c-0.23 1.41-0.95 2.47-1.62 2.35-0.67-0.1-1.02-1.33-0.79-2.74 0.23-1.41 0.95-2.46 1.62-2.35 0.67 0.11 1.02 1.33 0.79 2.74z"/>
				</g>
				<g id="&lt;Group&gt;">
					<g id="&lt;Group&gt;" style="opacity: .5;mix-blend-mode: multiply">
						<path id="&lt;Path&gt;" class="s4" d="m251.24 476.91c0.09-2.89 0.17-3.07-1.36-3.34-1.53-0.27-4.24-1.81-2.53-9.84 1.72-8.03 6.77-15.79-0.99-26.26-4.02-5.01-12.68-4.97-14.02-4.91-1.34 0.07-2.48 3.18-4.95 5.92-1.79 1.97-3.17 1.13-3.17 1.13 0 0-1.4-1.64-0.58-8.63 0.81-6.99 3.5-15.85 3.5-15.85-5.25 2.1-8.75 2.91-9.56 6.76-1.52 6.53-6.14 6.37-6.14 6.37 0 0-0.06 5.89-1.59 11.84 0.35-0.69 2.29-4.65 2.84-8.92 0.24-1.82 3.26-0.61 6.51-4.95 3.26-4.34 2.65-0.24 1.69 6.39-0.97 6.64 2.05 12.07 9.05 13.63 3.01 0.48-3.5-2.41-2.54-5.18 0.97-2.78 2.66-2.3 4.34-5.79 1.7-3.5 10.86-0.61 12.79 0.96 1.93 1.57 7.72 10.25 3.5 20.63-3.02 6.63-3.86 2.05-2.9-4.46 0.97-6.52-1.8-10.5-5.06-12.55-2.29-1.81 2.77 4.1 2.65 10.61-0.12 6.52-4.46 12.07-6.99 7.12-2.53-4.94-3.86-4.34-2.29-0.36 1.56 3.98 2.53 10.38 0.36 17.49-2.17 7.12-3.38 14.84-3.02 17.25 0.36 2.41-0.84 3.74-2.41 3.02-1.57-0.73-1.57-1.57-0.48-3.86 1.08-2.3 0.29-12.22-2.05-17.86-1.81-4.34-2.18-6.03 0.48-11.7-2.54 1.45-3.14 5.07-3.62 7-0.37 1.45-4.46 1.45-6.39-1.93-0.25 1.08 0.48 2.29 0.48 2.29 0 0-11.58-1.81-11.46-11.22-1.21 1.93-0.72 3.5-0.72 3.5 0 0-4.62-3.01 0.72-11.5-4.64 6.64-6.28 9.53 0.66 16.09-0.69-1.69-0.2-2.69-0.2-2.69 0 0-0.22 3.31 4.96 7.08 5.43 3.77 12.17 3.06 12.82 2.76 0.45 2.07 1.7 5.38 2.41 9.89 0.7 4.51 0.84 6.98 0.42 9.38-0.42 2.4-0.42 2.74 0.77 3.94-0.35 4.8-0.49 9.88-1.33 14.74-0.85 4.87-0.99 4.87-0.22 6.7 0.36-1.41 0.85-2.12 0.85-2.12 0 0-0.07 2.68 1.41 3.25-0.43-1.2-0.35-1.98-0.35-1.98 0 0 0.35 1.41 2.18 1.9 0.07-0.84 0.21-1.27 0.21-1.27l0.64 1.06 1.41-2.18c0 0 0.21 0.56-0.21 1.62 1.13-0.5 1.69-2.33 0.84-5.08-0.84-2.75-2.39-11.13-1.27-15.29 0.5-1.91 0.5-2.97 0.22-4.59-0.28-1.62 1.36-10.61 2.67-14.76 1.32-4.16 2.08-8.24 2.08-8.24 0 0 0.72-0.35 1.63-1.27-0.56 4.44 1.38 11.27 7.04 10.61 0 0 2.38 3.06 0.4 8.93-1.99 5.86-4.96 11.28-4.69 14.53 1.17-2.17 2.07-2.79 1.98-2.53-0.09 0.27 0 3.25 0 3.25l1.45-2.43c0 0 1.26 2.07 4.78 0.45 0.72-0.91-1.09-2.89-1.09-2.89l2.35 0.64c0 0-0.27-0.64-1.44-1.55-1.17-0.89-1-3.88 0.18-8.84 1.17-4.96 2.26-9.02 2.35-11.91z"/>
					</g>
				</g>
				<g id="&lt;Group&gt;">
					<g id="&lt;Group&gt;" style="opacity: .5;mix-blend-mode: multiply">
						<path id="&lt;Path&gt;" class="s4" d="m217.26 427.17c1.28-1.2 1.73-2.59 2.38-4.16 0.36-0.88 0.81-1.68 1.53-2.31 1.49-1.29 3.25-2.08 5.13-2.61 0.49-1.8 0.84-2.96 0.84-2.96-5.25 2.1-8.75 2.91-9.56 6.76-1.52 6.53-6.14 6.37-6.14 6.37 0 0-0.01 0.48-0.05 1.31 2.15-0.06 4.34-0.95 5.87-2.4z"/>
					</g>
				</g>
				<path id="&lt;Path&gt;" class="s5" d="m225.66 461.98c-1.18 1.21-1.9 2.81-2.23 4.44-0.36 1.82-0.4 4.16 0.27 5.9 0.06 0.15 0.31-0.17 0.28-0.28-0.82-3.39-0.44-7.15 1.74-9.96 0.06-0.08 0.03-0.2-0.06-0.1z"/>
				<g id="&lt;Group&gt;" style="mix-blend-mode: screen">
					<path id="&lt;Path&gt;" class="s8" d="m208.36 446.04c-2.86 3.2-5.56 7.12-4.39 11.62 0.17 0.65 0.96-0.37 0.9-0.77-0.58-4.36 1-7.33 3.55-10.76 0.05-0.07 0.02-0.18-0.06-0.09z"/>
					<path id="&lt;Path&gt;" class="s8" d="m213.14 466.19c-4.27-2.44-7.5-6.74-6.14-11.79 0.08-0.3-0.25-0.13-0.32 0.03-1.08 2.49-1.32 4.64-0.09 7.12 1.18 2.39 3.28 4.88 5.83 5.8 0.48 0.18 1.19-0.9 0.72-1.16z"/>
					<g id="&lt;Group&gt;" style="opacity: .5;mix-blend-mode: screen">
						<path id="&lt;Path&gt;" class="s4" d="m212.52 431.7c-0.28 4.44-1.67 8.57-3.62 12.53-0.18 0.35 0.19 0.38 0.36 0.11 2.38-3.81 3.44-8.29 3.5-12.77 0-0.2-0.23 0.02-0.24 0.13z"/>
					</g>
					<path id="&lt;Path&gt;" class="s8" d="m221.73 467.81c-1.64-0.42-3.2-0.37-4.61-1.43-1.35-1-2.01-2.68-2.91-4.04-0.12-0.18-0.37 0.21-0.31 0.36 0.78 1.69 1.27 3.27 2.63 4.65 1.26 1.27 3.26 1.49 4.94 1.21 0.24-0.04 0.61-0.66 0.26-0.75z"/>
				</g>
				<g id="&lt;Group&gt;" style="opacity: .5;mix-blend-mode: screen">
					<path id="&lt;Path&gt;" class="s4" d="m227.61 476.43c-0.62-2.13-1.18-4.26-1.85-6.37-0.77-2.4-0.53-4.25 0-6.67 0.08-0.33-0.28-0.08-0.34 0.1-0.48 1.54-0.91 2.89-1.04 4.52-0.18 2.11 1.01 4.37 1.44 6.39 0.55 2.55 1.46 4.99 2 7.53 0.53 2.45 0.7 4.93 0.97 7.4 0.05 0.45 0.62-0.24 0.64-0.44 0.39-4.25-0.64-8.4-1.82-12.46z"/>
				</g>
				<g id="&lt;Group&gt;" style="opacity: .5;mix-blend-mode: screen">
					<path id="&lt;Path&gt;" class="s4" d="m228.98 494.16c-0.24-0.63-0.65-1.2-0.49-1.9 0.09-0.39 0.15-0.74 0.1-1.15-0.02-0.2-0.28 0.09-0.3 0.17-0.13 0.7-0.55 1.26-0.62 1.97-0.06 0.6 0.26 1.29 0.57 1.78 0.28 0.45 0.87-0.53 0.74-0.87z"/>
				</g>
				<g id="&lt;Group&gt;">
					<g id="&lt;Group&gt;">
						<g id="&lt;Group&gt;">
							<g id="&lt;Group&gt;">
								<path id="&lt;Path&gt;" class="s4" d="m208.41 386.5c0 0-1.2-4.61-8.21-4.54-3.26 0.08-5.39-0.13-6.38-0.98 0 0-0.14 11.26 4.39 13.03 3.68 0.99 6.73-1.99 6.73-1.99 0 0-0.28 1.21 0.14 1.85 0 0-1.49 2.9-3.96 5.1-3.47 2.58-4.79 4.46-4.25 7.05 0.56-1.14 1.94-1.7 1.94-1.7 0 0-1.64 1.5-1.07 3.57 0.42-0.85 1.42-1.27 1.42-1.27 0 0-0.67 0.63-0.67 1.55 1.99 0.08 4.68 3.54 4.68 5.74 0 4.96-0.64 9.64 0.85 10.34 1.49 0.71 3.12 1.49 3.96 0.78 1.64 2.48 2.7 4.46 4.97 4.11 2.26-0.35 4.6-3.33 5.3-6.23 0.71-2.9 1.28-4.11 4.83-5.31 3.54-1.21 11.96-3.69 10.54-9.57 0.86 1.28 0.71 2.13 0.71 2.13 0 0 1.42-3.04-0.63-4.89 1.91 1.2 2.05 1.85 2.05 1.85 0 0 0.07-3.83-2.62-6.1-2.69-2.27-2.19-3.47-2.13-4.6 4.33 1.48 6.52 1.63 8.65-2.13 2.13-3.75 2.34-10.41 1.98-13.17-6.73 1.34-13.45 2.47-14.24 4.39-0.77 1.91-1.2 5.17-1.2 5.17 0 0-0.62-3.19-6.78-4.44-3.37-0.53-5.79-1.87-5.02-3.64-2.24 0.65-2.83 2.71-1.93 3.89 0 0-1.32-0.77-4.05 0.01z"/>
								<path id="&lt;Compound Path&gt;" fill-rule="evenodd" class="s5" d="m212.44 429.29c-1.82 0-2.84-1.59-4.15-3.6q-0.16-0.25-0.33-0.51-0.34 0.23-0.85 0.23c-0.89 0-2.02-0.54-3.12-1.06-1.2-0.57-1.11-3.37-1-6.91q0.07-1.71 0.08-3.53c0-2.25-2.7-5.56-4.58-5.63q-0.09-0.01-0.1-0.11c0-0.51 0.19-0.93 0.38-1.22-0.32 0.2-0.71 0.53-0.94 0.99q-0.03 0.06-0.1 0.05-0.07-0.01-0.09-0.07c-0.4-1.47 0.28-2.67 0.74-3.27-0.44 0.27-1.09 0.73-1.42 1.41q-0.04 0.06-0.11 0.06-0.07-0.02-0.08-0.08c-0.53-2.54 0.6-4.41 4.28-7.16 2.26-1.99 3.7-4.61 3.92-5.01-0.28-0.47-0.24-1.18-0.18-1.57-0.65 0.54-2.62 2.01-5.05 2.01q-0.79 0-1.55-0.2c-1.93-0.75-3.26-3.2-3.98-7.27-0.52-3-0.49-5.84-0.49-5.87q0-0.06 0.06-0.09 0.06-0.02 0.1 0.02c0.8 0.68 2.41 0.98 5.22 0.98q0.52 0 1.09-0.01h0.16c6.31 0 7.9 3.84 8.13 4.51q1.18-0.33 2.21-0.33c0.72 0 1.22 0.12 1.51 0.22-0.27-0.52-0.32-1.16-0.12-1.76 0.31-0.94 1.14-1.68 2.29-2.01q0.05-0.01 0.1 0.03 0.04 0.05 0.02 0.11-0.3 0.67 0.04 1.27c0.54 1 2.37 1.83 4.89 2.23 4.9 0.99 6.34 3.18 6.73 4.1 0.14-0.95 0.54-3.28 1.15-4.77 0.72-1.77 6.1-2.84 12.34-4.06q0.98-0.2 1.97-0.39 0.04-0.01 0.08 0.01 0.04 0.03 0.04 0.08c0.36 2.76 0.14 9.47-2 13.23-1.24 2.21-2.57 3.15-4.42 3.15-1.27 0-2.77-0.44-4.21-0.93q-0.01 0.12-0.03 0.25c-0.1 1.01-0.22 2.15 2.13 4.13 2.69 2.27 2.66 6.14 2.66 6.18q-0.01 0.08-0.1 0.09-0.08 0.01-0.11-0.07c0-0.01-0.13-0.47-1.36-1.35 1.29 1.87 0.15 4.39 0.14 4.41q-0.05 0.07-0.12 0.06-0.08-0.04-0.07-0.12c0-0.01 0.08-0.61-0.4-1.56 0.73 5.28-6.58 7.72-10.16 8.92q-0.3 0.1-0.58 0.19c-3.47 1.19-4.03 2.32-4.74 5.24-0.77 3.14-3.19 5.96-5.4 6.31q-0.27 0.05-0.52 0.05zm-4.46-4.36q0.01 0 0.02 0 0.05 0.01 0.07 0.05 0.2 0.31 0.39 0.6c1.27 1.96 2.27 3.5 3.98 3.5q0.24 0 0.49-0.04c2.1-0.33 4.49-3.15 5.23-6.15 0.72-2.95 1.32-4.18 4.88-5.39q0.27-0.09 0.58-0.2c3.65-1.22 11.23-3.75 9.91-9.24q-0.02-0.08 0.06-0.12 0.07-0.03 0.12 0.04c0.47 0.7 0.65 1.28 0.71 1.67 0.29-0.91 0.71-2.96-0.79-4.3q-0.06-0.07-0.01-0.14 0.05-0.07 0.13-0.02c1.12 0.69 1.64 1.21 1.88 1.53-0.06-1.03-0.44-3.83-2.56-5.62-2.44-2.05-2.31-3.25-2.2-4.31q0.02-0.19 0.04-0.38 0-0.05 0.04-0.08 0.04-0.03 0.09-0.01c1.46 0.5 3 0.97 4.27 0.97 1.79 0 3.03-0.88 4.25-3.05 2.08-3.67 2.31-10.2 1.98-13q-0.93 0.19-1.86 0.37c-5.92 1.16-11.51 2.26-12.19 3.94-0.77 1.87-1.2 5.11-1.2 5.14q-0.02 0.08-0.1 0.09-0.08 0-0.1-0.08c-0.01-0.03-0.69-3.15-6.71-4.36-2.61-0.41-4.45-1.26-5.04-2.33q-0.32-0.6-0.12-1.25c-0.97 0.34-1.68 0.99-1.95 1.81-0.21 0.66-0.11 1.35 0.27 1.86q0.05 0.06 0 0.13-0.05 0.05-0.13 0.02c0 0-0.58-0.33-1.72-0.33q-1.04 0-2.25 0.35-0.04 0.01-0.08-0.01-0.04-0.02-0.04-0.06c-0.02-0.05-1.26-4.46-7.97-4.46h-0.15q-0.57 0.01-1.1 0.01c-2.72 0-4.3-0.27-5.18-0.9 0.01 1.54 0.25 11.14 4.33 12.73q0.73 0.2 1.49 0.2c2.89 0 5.11-2.13 5.13-2.16q0.06-0.05 0.12-0.01 0.07 0.04 0.05 0.11c0 0.01-0.27 1.16 0.13 1.76q0.03 0.05 0 0.1c-0.01 0.03-1.52 2.95-3.98 5.13-3.49 2.6-4.64 4.38-4.28 6.68 0.64-0.99 1.81-1.48 1.87-1.5q0.07-0.03 0.12 0.04 0.04 0.07-0.02 0.13c-0.01 0.01-1.46 1.37-1.1 3.23 0.48-0.72 1.3-1.08 1.33-1.1q0.08-0.02 0.13 0.04 0.04 0.07-0.02 0.13c0 0.01-0.58 0.58-0.62 1.39 2.09 0.18 4.67 3.71 4.67 5.83q-0.01 1.82-0.07 3.54c-0.11 3.33-0.2 6.2 0.86 6.71 1.1 0.52 2.21 1.05 3.05 1.05q0.51 0 0.81-0.25 0.03-0.03 0.06-0.03z"/>
							</g>
							<g id="&lt;Group&gt;" style="opacity: .5;mix-blend-mode: multiply">
								<path id="&lt;Path&gt;" class="s4" d="m239.54 383.1c0 0 1.8 8.29-2.63 11.59-3.24 2-5.61-0.26-8.24-0.16 0.31-0.98 0.62-1.44 0.62-1.44l-1.08 1.23c0 0-0.36-1.18 0.26-2.62-0.88 1.03-1.19 1.7-1.19 1.7 0 0-1.34-5.56 2.73-7.47 4.07-1.9 6.85-0.98 9.53-2.83z"/>
							</g>
							<g id="&lt;Group&gt;" style="opacity: .5;mix-blend-mode: multiply">
								<path id="&lt;Path&gt;" class="s4" d="m194.51 382.76c0 0 0.76 1.47 1.04 4.63 0.28 3.16 1.51 6.47 6.04 5.29 2.69-0.9 2.03-3.5 2.03-3.5l0.81 1.04c0 0 0.51-0.18 0.28-1.79 0.9 0.9 1.18 1.42 1.18 1.42 0 0 1.94-1.66-0.05-4.63-1.98-2.98-6.33-2.51-11.33-2.46z"/>
							</g>
							<g id="&lt;Group&gt;" style="opacity: .5;mix-blend-mode: multiply">
								<path id="&lt;Path&gt;" class="s4" d="m241.63 381.12q0 0 0 0c-0.13 4.36-1.07 14.59-7.08 14.96-4.53 0.09-5.76-1.89-6.8 0.09-1.03 1.89-0.37 2.27-0.37 2.27 0 0 0.56-1.51 1.88-1.32 1.33 0.19 0.1 2.64 2.55 3.78 2.46 1.13 2.27 2.55 2.64 3.58-1.31-2.07-2.83-0.85-2.83-0.85 0 0 1.05 1.23 1.42 2.27-1.04-0.94-1.89-0.76-1.89-0.76 0 0 2.46 5.48-4.53 8.13-6.42 2.08-7.56 4.06-7.94 6.33-0.37 2.26-2.55 9.25-6.21 9.17-1.29-0.22-1.55-0.86-0.6-0.65 0.95 0.22 3.19-0.04 4.26-3.92 1.08-3.88 1.04-5.39 1.04-5.39 0 0 1.38-0.04 1.47-1.12-0.74 0.74-2.24 0.13-3.58-2.46 0.08 1.68 1.55 3.28 0 6.12-1.55 2.85-5.52 5.09-6.9 2.5-0.51-0.86 3.49 0.35 4.01-2.5 0.52-2.84-3.19-6.37-5.95-5.3-2.76 1.08-2.29 0.22-2.36-1.56-0.07-1.69-1.37-4.99-4.02-5.84 1.67 1.04 3.33 3.54 3.33 5.26 0 3.62-0.34 7.07 0.06 8.96 1.09 0.4 2.41 0.16 3.3 1.01 0.37 0.36 0.54 0.89 0.64 1.43q0.48-0.01 0.81-0.28c1.64 2.48 2.7 4.46 4.97 4.11 2.26-0.35 4.6-3.33 5.3-6.23 0.71-2.9 1.28-4.11 4.83-5.31 3.54-1.21 11.96-3.69 10.54-9.57 0.86 1.28 0.71 2.13 0.71 2.13 0 0 1.42-3.04-0.63-4.89 1.91 1.2 2.05 1.85 2.05 1.85 0 0 0.07-3.83-2.62-6.1-2.69-2.27-2.19-3.47-2.13-4.6 4.33 1.48 6.52 1.63 8.65-2.13 2.13-3.75 2.34-10.41 1.98-13.17z"/>
							</g>
							<g id="&lt;Group&gt;" style="opacity: .5;mix-blend-mode: multiply">
								<path id="&lt;Path&gt;" class="s4" d="m208.32 410.38c0 0 0.66-6.6-2.1-11-1.77-2.9-5.19-0.11-6.19 0.95-1.27 1.13-1.7 1.05-1.7 1.05 0 0 1.21 0.44 1.14 1.85-0.07 1.42 0.07 6.16 5.1 6.31 2.61-0.36 3.75 0.84 3.75 0.84z"/>
							</g>
							<g id="&lt;Group&gt;" style="opacity: .5;mix-blend-mode: multiply">
								<path id="&lt;Path&gt;" class="s4" d="m215.09 410.43c0 0 1.63-2.48 5.53-1.63 3.91 0.85 6.75 0.28 7.52-2.13 0.79-2.27 1.21-2.84 2.56-3.62-1.91-0.14-2.23-1.64-3.48-3.26-1.97-2.57-6.79-4.3-9.91 1.59-2.41 4.25-2.22 9.05-2.22 9.05z"/>
							</g>
							<g id="&lt;Group&gt;">
								<path id="&lt;Path&gt;" class="s9" d="m207.98 425.03c0 0 2.37 1.58 5.15-0.34 2.78-1.92 3.49-6.01 3.49-6.01 0 0-0.41 5.86-2.07 7.98-1.67 2.13-2.38 1.27-3.39 0.41-1.01-0.86-2.41-1.59-3.18-2.04z"/>
								<path id="&lt;Compound Path&gt;" fill-rule="evenodd" class="s10" d="m212.72 428.09c-0.53 0-0.97-0.38-1.44-0.78l-0.19-0.17c-0.84-0.71-1.95-1.34-2.76-1.79l-0.19-0.11q-0.21-0.12-0.21-0.12-0.07-0.06-0.03-0.14 0.06-0.07 0.14-0.04l0.2 0.12c0.35 0.18 1.07 0.48 2.02 0.48q1.46 0 2.81-0.93c2.72-1.88 3.44-5.91 3.45-5.95q0.02-0.09 0.11-0.09 0.09 0.02 0.09 0.12c-0.02 0.24-0.43 5.91-2.1 8.04-0.72 0.93-1.33 1.36-1.9 1.36zm-3.47-2.46c0.65 0.39 1.38 0.85 1.98 1.36l0.19 0.17c0.45 0.39 0.84 0.73 1.3 0.73 0.5 0 1.06-0.41 1.75-1.29 1.15-1.46 1.69-4.79 1.92-6.64-0.44 1.39-1.39 3.57-3.2 4.82q-1.41 0.96-2.93 0.97-0.57-0.01-1.01-0.12z"/>
							</g>
							<path id="&lt;Path&gt;" class="s11" d="m211.7 426.15c0.85-0.34 1.68-0.65 2.37-1.3 0.38-0.36 0.68-0.91 1.2-1.06 0.22-0.06 0.35 0.08 0.43 0.31 0.72-2.47 0.92-5.42 0.92-5.42 0 0-0.71 4.09-3.49 6.01-2.31 1.6-4.33 0.78-4.94 0.46 0.75 0.42 1.91 1.06 2.83 1.8 0.1-0.33 0.27-0.63 0.68-0.8z"/>
							<g id="&lt;Group&gt;">
								<path id="&lt;Path&gt;" class="s12" d="m208.35 424.88c-0.29-0.29-0.54-0.57-0.76-0.91-0.18-0.31-0.28-0.64-0.41-0.96-0.03-0.06-0.08 0.05-0.07 0.08 0.04 0.76 0.51 1.58 1.1 2.04 0.1 0.08 0.21-0.17 0.14-0.25z"/>
								<path id="&lt;Path&gt;" class="s12" d="m218.33 418.1c-1.29 0.29-2.37-0.98-2.87-2.04-0.02-0.04-0.08 0.05-0.07 0.07 0.16 0.46 0.56 1.17 1.07 1.69 0.06 0.19 0.05 0.43 0.06 0.61q0 0.4 0.01 0.79c0 0.14 0.16-0.01 0.16-0.09q0.02-0.46-0.04-0.92-0.01-0.12-0.04-0.25c0.51 0.46 1.12 0.69 1.69 0.32 0.04-0.03 0.14-0.21 0.03-0.18z"/>
								<path id="&lt;Path&gt;" class="s12" d="m220.27 417.25c-1.15 1.11-1.81 2.56-1.75 4.17 0.01 0.15 0.18-0.02 0.18-0.1 0.07-1.57 0.5-2.86 1.59-4.02 0.02-0.02 0.02-0.08-0.02-0.05z"/>
								<path id="&lt;Path&gt;" class="s12" d="m213.86 397.16c-1.26-0.23-2-0.95-2.77-1.95-0.85-1.1-0.72-2.14-0.45-3.35q0.01-0.02 0.04-0.06c0.03-0.04 0.02-0.1-0.01-0.09q0-0.04 0.01-0.08c0.02-0.09-0.08-0.02-0.1 0.03q-0.03 0.1-0.06 0.2c-0.62 0.69-1.33 1.79-1.3 2.79-1-1.23-1.02-3.08 0.04-4.26q0.14-0.09 0.28-0.18c0.06-0.03 0.12-0.22 0.01-0.16-1.16 0.55-2.31 1.53-2.81 2.77 0.07-1.4 0.56-2.61 1.59-3.64 0.42-0.4 1.06-0.51 1.41-0.95 0.05-0.05 0.14-0.21 0.05-0.27-0.55-0.35-1.93 0.17-2.42 0.37-0.26 0.12-0.8 0.3-0.96 0.6 0.55-1.03 1.5-2.04 2.56-2.57 0.02-0.01 0.06-0.12 0.01-0.1-1.32 0.49-2.27 1.67-2.72 2.97-0.06 0.17 0.09 0.2 0.17 0.06 0.64-1.18 2.07-0.58 2.96-1.09-0.54 0.31-1.04 0.54-1.46 1.04-1 1.19-1.5 2.48-1.51 4.03q0 0 0 0v0.05c0 0.13 0.07 0.12 0.15 0.07q-0.05 0.2-0.08 0.4c-0.01 0.2 0.22-0.02 0.25-0.1 0.19-0.66 0.46-1.25 0.83-1.82 0.36-0.56 0.84-0.93 1.35-1.27-0.41 0.47-0.64 1.01-0.75 1.68-0.12 0.86 0.3 2.67 1.2 3q0 0 0 0 0.02 0.03 0.03 0.07c0.06 0.11 0.22-0.14 0.21-0.21-0.23-1.11 0.2-2.13 0.82-3.01-0.33 1.1-0.43 1.99 0.22 3.12 0.67 1.16 1.71 2.15 3.08 2.22 0.12 0.01 0.28-0.28 0.13-0.31z"/>
								<path id="&lt;Path&gt;" class="s12" d="m220.37 396.14c-0.72-0.05-1.41-0.02-2.04-0.43-0.56-0.37-1.18-1.27-1.32-1.94-0.01-0.08-0.11 0.05-0.11 0.1q-0.04 0.04-0.04 0.08c-0.04 0.78 0.23 1.86 0.84 2.52-0.61-0.09-1.16-0.26-1.7-0.66-0.78-0.58-1.2-1.43-1.3-2.37 0-0.08-0.11 0.04-0.12 0.09q0 0.03 0 0.07-0.03 0.03-0.03 0.07c0.09 0.43-0.03 0.88-0.02 1.31 0 0.39 0.11 0.78 0.24 1.15 0.15 0.47 0.53 1.02 1.05 1.12 0.08 0.02 0.21-0.19 0.13-0.24-0.59-0.34-0.91-0.88-1.1-1.51q-0.1-0.41-0.09-0.82c0.49 1.34 1.94 2.35 3.39 2.14q0.12 0.08 0.25 0.14c0.1 0.03 0.22-0.16 0.14-0.23q-0.02-0.01-0.03-0.02c0.05-0.07 0.08-0.17 0.01-0.17q-0.11 0-0.2-0.01c-0.31-0.27-0.59-0.54-0.81-0.91q-0.3-0.5-0.42-1.08c0.19 0.45 0.49 0.88 0.81 1.2 0.67 0.66 1.44 0.73 2.35 0.67 0.1 0 0.25-0.26 0.12-0.27z"/>
								<path id="&lt;Path&gt;" class="s12" d="m226.17 390.16q-0.11 1.38-1.32 2.05c-0.06 0.03-0.17 0.24-0.03 0.22 0.41-0.05 0.76-0.43 0.99-0.75 0.35-0.5 0.51-0.98 0.48-1.6 0-0.11-0.12 0.02-0.12 0.08z"/>
								<path id="&lt;Path&gt;" class="s12" d="m231.18 396.34c-0.74-0.26-1.25-0.69-2.05-0.45-0.75 0.22-1.01 1.03-1.49 1.54-0.05 0.04-0.04 0.17 0.03 0.1 0.59-0.57 0.86-1.32 1.81-1.41 0.58-0.06 0.97 0.57 1.59 0.49 0.06-0.01 0.22-0.23 0.11-0.27z"/>
								<path id="&lt;Path&gt;" class="s12" d="m205.67 390.88c-0.01-0.11-0.14 0.06-0.14 0.12 0.1 1.09-0.23 2.08-0.67 3.05-0.06 0.15 0.06 0.24 0.16 0.1 0.64-0.86 0.83-2.23 0.65-3.27z"/>
							</g>
							<path id="&lt;Path&gt;" class="s2" d="m195.31 383.29c0 0 0.44 1.25 0.71 3.38 0.27 2.14 0.8 5.75 3.7 5.61 2.89-0.13 4.59-1.6 2.94-4.67 1.29 0.4 1.82 1.91 1.82 1.91 0 0 0.09-1.78-0.93-2.72 1.73 0.05 2.4 1.92 2.4 1.92 0 0 1.7-6.77-10.64-5.43z"/>
							<g id="&lt;Group&gt;" style="opacity: .5;mix-blend-mode: multiply">
								<path id="&lt;Path&gt;" class="s2" d="m201.99 383.52c0.37 0.56 0.6 1.18 0.59 1.9 0 0.38-0.31 0.62-0.61 0.75-0.35 0.14-0.07 0.62-0.06 0.9 0.01 0.63-0.52 0.64-1.01 0.53 0.38 0.73 0.71 1.6 0.28 2.28-0.5 0.8-1.46 1.38-2.37 0.8-1.3-0.83-1.83-2.17-2.12-3.64-0.2-0.96-0.36-2.1-1.04-2.86q-0.06-0.06-0.12-0.13c0.15 0.58 0.35 1.47 0.49 2.62 0.27 2.14 0.8 5.75 3.7 5.61 2.89-0.13 4.59-1.6 2.94-4.67 1.29 0.4 1.82 1.91 1.82 1.91 0 0 0.09-1.78-0.93-2.72 1.73 0.05 2.4 1.92 2.4 1.92 0 0 0.97-3.9-3.96-5.2z"/>
							</g>
							<path id="&lt;Path&gt;" class="s2" d="m227.61 392.44c0 0 0.41-1.67 2.12-2.35-1.36 1.89-1.29 3.41-1.29 3.41 0 0 0.76-1.29 1.97-1.86-0.98 1.25-1.1 2.58-1.1 2.58 0 0 0.69-0.15 3.22 0.8 2.54 0.94 5.69-0.95 6.41-4.55 0.72-3.6 0.23-6.6 0.23-6.6 0 0-2.88 1.52-6.67 1.97-2.81 0.35-5.46 2.12-4.89 6.6z"/>
							<g id="&lt;Group&gt;" style="opacity: .5;mix-blend-mode: multiply">
								<path id="&lt;Path&gt;" class="s2" d="m236.36 392.61c-0.96 0.69-2.77 1.5-3.87 0.77-0.92-0.61 0.03-1.62 0.74-2.29q-0.31 0.04-0.66 0.04c-0.16 0.01-0.08-0.27-0.03-0.34q0.49-0.81 0.9-1.66-0.65 0.22-1.19 0.65c-0.09 0.06-0.23 0.1-0.26-0.03-0.34-1.45 0.46-2.35 1.88-2.63 1.1-0.21 2.25-0.21 3.25-0.78 1.03-0.58 1.68-1.39 2.06-2.36q-0.01-0.1-0.01-0.11c0 0-2.88 1.52-6.67 1.97-2.81 0.35-5.46 2.12-4.89 6.6 0 0 0.41-1.67 2.12-2.35-1.36 1.89-1.29 3.41-1.29 3.41 0 0 0.76-1.29 1.97-1.86-0.98 1.25-1.1 2.58-1.1 2.58 0 0 0.69-0.15 3.22 0.8 2.54 0.94 5.69-0.95 6.41-4.55q0.24-1.23 0.32-2.33c-0.5 1.74-1.31 3.32-2.9 4.47z"/>
							</g>
							<g id="&lt;Group&gt;">
								<path id="&lt;Path&gt;" class="s13" d="m225.24 399.49c0 0 1.43 0.41 2.35 1.95 0.87 1.38 1.33 1.98 2.63 1.65-0.88 0.62-1.38 0.83-2.76 3.63 0.71-1.75-0.25-5.43-2.22-7.23z"/>
								<g id="&lt;Group&gt;">
									<path id="&lt;Path&gt;" class="s14" d="m216.01 408.6c0 0 0.71-4.87 4.11-8.22 1.99-1.98 6.57-2.31 7.98 3.12 0.33 1.61-0.9 6.38-6.75 4.67-2.6-0.75-4.53-0.09-5.34 0.43z"/>
									<path id="&lt;Compound Path&gt;" fill-rule="evenodd" class="s15" d="m216.01 408.7q-0.03 0-0.05-0.01-0.05-0.04-0.05-0.1c0.01-0.05 0.76-4.94 4.14-8.28 0.85-0.85 2.1-1.35 3.34-1.35 1.09 0 3.75 0.44 4.81 4.51 0.19 0.92-0.11 2.49-1.03 3.61-0.83 1.02-2.04 1.56-3.52 1.56q-1.07 0-2.33-0.36-1.16-0.34-2.27-0.34c-1.69 0-2.71 0.57-2.98 0.75q-0.03 0.01-0.06 0.01zm3.04-0.97q1.14 0 2.33 0.35 1.23 0.35 2.27 0.35 2.16 0 3.36-1.47c0.99-1.21 1.13-2.75 0.99-3.44-0.72-2.77-2.4-4.36-4.61-4.36-1.19 0-2.39 0.49-3.2 1.3-2.93 2.89-3.85 6.97-4.04 7.94 0.45-0.24 1.43-0.67 2.9-0.67z"/>
								</g>
								<g id="&lt;Group&gt;">
									<path id="&lt;Path&gt;" class="s16" d="m219.71 403.56c-0.11 2.21 1.48 4.01 3.55 4.04 2.06 0.02 3.81-1.75 3.91-3.96 0.1-2.2-1.49-4.01-3.55-4.03-2.06-0.03-3.81 1.74-3.91 3.95z"/>
									<path id="&lt;Path&gt;" class="s17" d="m219.71 403.56c-0.11 2.21 1.48 4.01 3.55 4.04 2.06 0.02 3.81-1.75 3.91-3.96 0.1-2.2-1.49-4.01-3.55-4.03-2.06-0.03-3.81 1.74-3.91 3.95z"/>
									<path id="&lt;Path&gt;" class="s16" d="m220.59 403.71c-0.08 1.69 1.13 3.07 2.7 3.09 1.58 0.02 2.91-1.33 2.99-3.02 0.07-1.68-1.14-3.06-2.71-3.08-1.57-0.02-2.91 1.33-2.98 3.01z"/>
									<path id="&lt;Path&gt;" class="s18" d="m221.07 403.56c-0.06 1.34 0.9 2.42 2.14 2.44 1.24 0.02 2.3-1.05 2.36-2.38 0.06-1.33-0.89-2.42-2.14-2.44-1.24-0.01-2.3 1.05-2.36 2.38z"/>
									<path id="&lt;Path&gt;" class="s19" d="m227.14 403.01q0.04 0.31 0.03 0.63c-0.1 2.21-1.85 3.98-3.91 3.96-2.07-0.03-3.66-1.83-3.55-4.04q0.02-0.31 0.07-0.6c2.2 1.22 5.45 1.54 7.36 0.05z"/>
									<path id="&lt;Path&gt;" class="s14" d="m224.03 402.64c0.05 0.69 0.61 1.21 1.25 1.17 0.65-0.04 1.12-0.63 1.07-1.32-0.05-0.68-0.61-1.2-1.25-1.16-0.65 0.04-1.13 0.63-1.07 1.31z"/>
									<path id="&lt;Path&gt;" class="s14" d="m224.64 404.78c0.02 0.33 0.29 0.58 0.6 0.56 0.3-0.02 0.53-0.3 0.5-0.63-0.02-0.32-0.29-0.57-0.59-0.55-0.31 0.02-0.54 0.3-0.51 0.62z"/>
								</g>
								<g id="&lt;Group&gt;">
									<path id="&lt;Compound Path&gt;" fill-rule="evenodd" class="s13" d="m215.65 409.18l0.08-0.62c0.03-0.2 0.77-5 4.19-8.38 0.88-0.88 2.18-1.4 3.47-1.4 1.13 0 3.89 0.45 4.99 4.65 0.2 0.96-0.11 2.6-1.07 3.77-1.27 1.56-3.4 2.01-6.04 1.25q-1.13-0.33-2.23-0.33c-1.63 0-2.61 0.55-2.88 0.72zm3.4-1.63q1.18 0 2.39 0.35c2.43 0.71 4.31 0.34 5.44-1.06 0.9-1.1 1.1-2.58 0.96-3.28-0.7-2.67-2.32-4.22-4.44-4.22-1.15 0-2.29 0.47-3.06 1.24-2.63 2.59-3.62 6.13-3.93 7.49 0.55-0.24 1.44-0.52 2.64-0.52z"/>
								</g>
								<g id="&lt;Group&gt;" style="mix-blend-mode: multiply">
									<path id="&lt;Path&gt;" class="s20" d="m228.1 403.5q-0.24-0.91-0.58-1.61c0.09 1.99-1.01 3.8-2.94 4.42-3.18 1.01-3.11-1.3-5.57-0.36-1.29 0.49-1.41-0.94-1.22-2.4-1.42 2.61-1.78 5.05-1.78 5.05 0.81-0.52 2.74-1.18 5.34-0.43 5.85 1.71 7.08-3.06 6.75-4.67z"/>
								</g>
							</g>
							<g id="&lt;Group&gt;">
								<path id="&lt;Path&gt;" class="s13" d="m202.27 399.55c0 0-0.66 0-2.04 1.13-1.08 0.9-1.55 0.78-1.9 0.7 0.72 0.5 1.53-0.15 1.68 1.4 0.37-1.1 2.26-3.23 2.26-3.23z"/>
								<g id="&lt;Group&gt;">
									<path id="&lt;Path&gt;" class="s14" d="m207.47 408.93c0 0-0.21-9.11-4.7-9.23-2.51 0.12-2.94 3.29-2.3 5.89 0.64 2.61 3.29 3.46 4.44 2.99 1.15-0.47 2.56 0.35 2.56 0.35z"/>
									<path id="&lt;Compound Path&gt;" fill-rule="evenodd" class="s15" d="m207.48 409.03q0 0-0.01 0-0.02 0-0.05-0.01c0-0.01-0.83-0.48-1.71-0.48q-0.42 0-0.76 0.14-0.32 0.13-0.75 0.13c-1.48 0-3.32-1.12-3.83-3.19-0.39-1.58-0.46-3.74 0.5-5.03q0.7-0.93 1.9-1c1.89 0.06 3.32 1.7 4.13 4.74 0.57 2.13 0.66 4.27 0.68 4.56q0 0.02 0 0.04-0.01 0.09-0.1 0.1zm-1.77-0.69c0.7 0 1.36 0.27 1.66 0.42-0.03-0.58-0.16-2.48-0.66-4.38-1-3.72-2.7-4.54-3.94-4.58q-1.09 0.06-1.74 0.91c-0.76 1.02-0.94 2.93-0.46 4.86 0.54 2.21 2.51 3.04 3.63 3.04q0.39 0 0.67-0.12 0.38-0.15 0.84-0.15z"/>
								</g>
								<g id="&lt;Clip Group&gt;" clip-path="url(#cp1)">
									<g id="&lt;Group&gt;">
										<path id="&lt;Path&gt;" class="s16" d="m201.62 404.8c0.15 1.97 1.69 3.41 3.44 3.21 1.75-0.19 3.06-1.94 2.91-3.91-0.15-1.97-1.69-3.41-3.45-3.22-1.75 0.2-3.05 1.96-2.9 3.92z"/>
										<path id="&lt;Path&gt;" class="s17" d="m201.62 404.8c0.15 1.97 1.69 3.41 3.44 3.21 1.75-0.19 3.06-1.94 2.91-3.91-0.15-1.97-1.69-3.41-3.45-3.22-1.75 0.2-3.05 1.96-2.9 3.92z"/>
										<path id="&lt;Path&gt;" class="s16" d="m202.38 404.85c0.11 1.5 1.28 2.6 2.63 2.45 1.34-0.15 2.33-1.48 2.21-2.98-0.11-1.51-1.28-2.6-2.62-2.46-1.34 0.15-2.34 1.48-2.22 2.99z"/>
										<path id="&lt;Path&gt;" class="s18" d="m202.78 404.66c0.09 1.19 1.01 2.06 2.08 1.94 1.05-0.12 1.84-1.17 1.75-2.36-0.09-1.18-1.02-2.05-2.08-1.94-1.06 0.12-1.84 1.17-1.75 2.36z"/>
										<path id="&lt;Path&gt;" class="s19" d="m207.88 403.54q0.07 0.27 0.09 0.56c0.15 1.97-1.16 3.72-2.91 3.91-1.75 0.2-3.29-1.24-3.44-3.21q-0.02-0.27 0-0.54c1.99 0.86 4.79 0.8 6.26-0.72z"/>
										<path id="&lt;Path&gt;" class="s14" d="m205.2 403.54c0.11 0.6 0.65 1.01 1.18 0.9 0.55-0.1 0.89-0.67 0.77-1.27-0.11-0.61-0.65-1.01-1.19-0.91-0.54 0.1-0.89 0.68-0.76 1.28z"/>
										<path id="&lt;Path&gt;" class="s14" d="m205.94 405.37c0.06 0.29 0.31 0.49 0.57 0.44 0.25-0.05 0.42-0.33 0.36-0.61-0.05-0.29-0.31-0.48-0.57-0.43-0.26 0.04-0.42 0.32-0.36 0.6z"/>
									</g>
								</g>
								<g id="&lt;Group&gt;">
									<path id="&lt;Compound Path&gt;" fill-rule="evenodd" class="s13" d="m207.77 409.42l-0.44-0.25c-0.01 0-0.79-0.45-1.62-0.45q-0.38 0-0.69 0.13-0.35 0.14-0.82 0.14c-1.55 0-3.47-1.17-4.01-3.33-0.39-1.62-0.47-3.83 0.54-5.18q0.74-1 2.03-1.07c4.72 0.14 4.99 9.13 5 9.51zm-2.07-1.27c0.57 0 1.1 0.17 1.46 0.32-0.12-1.83-0.79-8.39-4.4-8.49q-0.99 0.05-1.58 0.84c-0.73 0.98-0.9 2.82-0.44 4.71 0.52 2.11 2.39 2.89 3.46 2.89q0.35 0 0.6-0.1 0.41-0.17 0.9-0.17z"/>
								</g>
								<g id="&lt;Group&gt;" style="mix-blend-mode: multiply">
									<path id="&lt;Path&gt;" class="s20" d="m206.08 402.36c0.56 1.68 0.87 3.59-0.23 4.37-1.67 1.19-4.93 0.19-5.65-3.24 0.01 0.7 0.1 1.42 0.27 2.1 0.64 2.61 3.29 3.46 4.44 2.99 1.15-0.47 2.56 0.35 2.56 0.35 0 0-0.09-3.85-1.39-6.57z"/>
								</g>
							</g>
							<path id="&lt;Compound Path&gt;" fill-rule="evenodd" class="s5" d="m212.72 428.09c-0.53 0-0.97-0.38-1.44-0.78l-0.19-0.17c-0.8-0.68-2.04-1.36-2.85-1.81q-0.2-0.11-0.37-0.2-0.18-0.1-0.18-0.11-0.07-0.05-0.03-0.14 0.05-0.07 0.14-0.03l0.17 0.09c0.32 0.18 1.19 0.57 2.31 0.57q1.49 0 2.79-0.9c2.72-1.87 3.44-6.81 3.45-6.86q0.02-0.09 0.11-0.09 0.09 0.02 0.09 0.11c-0.01 0.28-0.42 6.83-2.1 8.96-0.72 0.93-1.33 1.36-1.9 1.36zm-3.62-2.51c0.73 0.41 1.53 0.9 2.13 1.41l0.19 0.17c0.45 0.39 0.84 0.73 1.3 0.73 0.5 0 1.06-0.41 1.75-1.29 1.12-1.43 1.67-5.05 1.9-7.19-0.44 1.65-1.38 4.12-3.18 5.37q-1.36 0.93-2.91 0.94-0.66-0.01-1.18-0.14z"/>
							<g id="&lt;Group&gt;">
								<g id="&lt;Group&gt;">
									<path id="&lt;Path&gt;" class="s21" d="m203.69 422.5c0 0 5.42 1.2 7.45-0.51 0.98-1.25-0.32-3.56-2.4-5.09-2.09-1.53-4.17 0.32-5.56 2.17-1.38 1.85-0.69 3.1 0.51 3.43z"/>
									<path id="&lt;Compound Path&gt;" fill-rule="evenodd" class="s22" d="m203.69 422.5c-0.34-0.09-0.67-0.27-0.9-0.54-0.25-0.26-0.37-0.62-0.38-0.98-0.01-0.35 0.09-0.71 0.23-1.03 0.14-0.33 0.34-0.63 0.55-0.92q0.63-0.87 1.42-1.61 0.39-0.36 0.86-0.64 0.46-0.29 0.99-0.44 0.54-0.14 1.09-0.05c0.36 0.07 0.73 0.2 1.02 0.39l0.23 0.15 0.22 0.16q0.21 0.17 0.41 0.34 0.41 0.36 0.77 0.76c0.47 0.54 0.88 1.15 1.14 1.83q0.21 0.52 0.21 1.07c-0.01 0.38-0.12 0.75-0.35 1.04l-0.01 0.01-0.41 0.28q-0.22 0.1-0.44 0.2c-0.15 0.07-0.31 0.1-0.46 0.15q-0.23 0.07-0.47 0.11-0.24 0.05-0.48 0.08-0.24 0.02-0.48 0.04-0.48 0.04-0.95 0.03-1.93-0.03-3.81-0.43zm0 0q0.94 0.19 1.89 0.29 0.96 0.1 1.92 0.1 0.47-0.01 0.95-0.05 0.24-0.03 0.47-0.06 0.24-0.03 0.47-0.09 0.23-0.04 0.46-0.12 0.23-0.06 0.44-0.16 0.22-0.09 0.43-0.2l0.37-0.26q0.3-0.43 0.3-0.96-0.01-0.51-0.21-1c-0.26-0.65-0.67-1.24-1.13-1.76q-0.35-0.4-0.75-0.75-0.19-0.17-0.4-0.34l-0.21-0.16-0.22-0.14c-0.3-0.2-0.61-0.31-0.95-0.38q-0.51-0.08-1.02 0.03-0.51 0.13-0.96 0.4-0.46 0.27-0.86 0.62-0.8 0.7-1.45 1.55c-0.21 0.28-0.42 0.57-0.56 0.9-0.14 0.32-0.25 0.67-0.24 1.02 0.01 0.36 0.12 0.71 0.36 0.98q0.37 0.4 0.9 0.54zm7.4-0.55q0 0 0 0l0.01-0.01z"/>
								</g>
								<g id="&lt;Group&gt;" style="opacity: .5;mix-blend-mode: multiply">
									<path id="&lt;Path&gt;" class="s21" d="m208.8 416.95c2.07 2.08 1.3 4.5-3.08 4.34-4.6-0.15-1.52-3.39-1.52-3.39h-0.01q-0.55 0.56-1.01 1.17c-1.38 1.85-0.69 3.1 0.51 3.43 0 0 5.42 1.2 7.45-0.51 0.97-1.24-0.3-3.52-2.34-5.04z"/>
								</g>
								<path id="&lt;Path&gt;" class="s14" d="m207.18 416.73c-0.56-0.27-1.63 0.41-2.08 0.71-0.67 0.47-1.15 1.04-1.53 1.76-0.03 0.05 0.01 0.08 0.04 0.02 0.83-1.32 1.96-1.88 3.43-2.18 0.09-0.02 0.25-0.25 0.14-0.31z"/>
								<path id="&lt;Path&gt;" class="s14" d="m208.54 417c-0.22-0.22-0.59-0.27-0.85-0.13-0.05 0.02-0.13 0.2-0.03 0.18 0.32-0.07 0.47 0.32 0.76 0.22 0.09-0.03 0.21-0.19 0.12-0.27z"/>
							</g>
							<g id="&lt;Group&gt;" style="opacity: .5;mix-blend-mode: multiply">
								<path id="&lt;Path&gt;" class="s4" d="m206.41 388.93c0 0 1.44-1.47 3.38-0.97-2.47 1.1-3.45 3.44-3.3 5.83 0.61-2.3 1.42-2.61 3.06-3.74-1.62 2.27-1.7 3.79-0.03 6.36-0.3-2.04 1.16-4.78 1.16-4.78 0 0-2.45 6.45 6.57 5.92-2.04-0.76-2.58-3.56-2.58-3.56 0 0 1.14 2.58 4.32 2.73-2.19-1.14-1.98-2.95-1.98-2.95 0 0 1 3.71 5.7 1.89-2.96-0.31-5.91-2.05-5.53-5.23-1.6 2.65-1.14 3.48-1.14 3.48 0 0-1.59-1.36-1.97-2.8-1.37 2.43 0.3 5.08 0.3 5.08 0 0-4.55-0.91-2.73-6.06-1.74 0.22-2.5 2.88-2.5 2.88 0 0 0.31-3.19 2.58-4.93-1.52 0.61-2.81 1.59-2.81 1.59 0 0 0.54-2.12 3.11-2.43-2.04-0.53-4.47-0.33-5.61 1.69z"/>
							</g>
							<g id="&lt;Group&gt;" style="opacity: .8;mix-blend-mode: screen">
								<path id="&lt;Path&gt;" class="s4" d="m214.86 386.13c-2.63-1.31-0.91-3.05-0.91-3.05 0 0-3.24 0.91-0.2 4.35-2.07-1.55-4.47-1.3-5.12-0.58 3.44-0.2 4.15 0.71 4.15 0.71 0 0-2.07 0-2.78 1.17 1.29-0.91 2.39-0.65 2.39-0.65 0 0-1.75 1.04-1.94 2.27 0 0 1.1-1.17 2.72-1.36-1.36 1.04-1.88 4.35 0.45 6.36-1.42-3.51-0.52-4.81 0.98-5.84-0.46 0.78 0.97 3.11 0.97 2.92 0-0.2-0.91-1.43 2.08-3.18-0.46 0.84 0.06 6.29 5.58 5.45-2.86-1.1-2.4-4.48-2.4-4.48 0 0 0.84 2.01 3.82 1.69-1.81-1.82-1.55-5.52-5.06-4.16-0.06-1.36-2.14-0.32-4.73-1.62z"/>
							</g>
							<g id="&lt;Group&gt;" style="opacity: .5;mix-blend-mode: screen">
								<path id="&lt;Path&gt;" class="s4" d="m241.02 381.93c-1.27 0.42-2.64 0.22-3.96 0.37-1.93 0.24-3.91 0.52-5.72 1.26-2.13 0.88-3.41 1.72-4.15 3.97-0.21 0.63 0.55 0.29 0.7-0.07 1.95-4.75 9-3.79 13.07-5.31 0.08-0.03 0.17-0.26 0.06-0.22z"/>
							</g>
							<g id="&lt;Group&gt;" style="opacity: .5;mix-blend-mode: screen">
								<path id="&lt;Path&gt;" class="s4" d="m206.74 384.65c-1.95-4.51-7.8-1.69-11.48-2.69-0.05-0.01-0.11 0.1-0.07 0.13 1.17 0.71 2.84 0.48 4.16 0.47 1.09-0.01 2.12 0 3.2 0.15 1.92 0.25 2.64 1.07 3.75 2.46 0.2 0.24 0.53-0.31 0.44-0.52z"/>
							</g>
							<g id="&lt;Group&gt;" style="opacity: .5;mix-blend-mode: screen">
								<path id="&lt;Compound Path&gt;" class="s4" d="m226.98 412c1.22-0.31 2.85-1.35 3.21-2.62 0.88-3.06-4.29-1.65-4.99 0.32-0.45 1.28 0.28 2.69 1.78 2.3z"/>
							</g>
							<g id="&lt;Group&gt;" style="opacity: .5;mix-blend-mode: screen">
								<path id="&lt;Compound Path&gt;" class="s4" d="m202.63 408.67c-0.34-0.96-2.87-1.64-2.44-0.16 0.18 0.63 0.97 1.14 1.57 1.29 0.73 0.19 1.09-0.5 0.87-1.13z"/>
							</g>
							<path id="&lt;Path&gt;" class="s13" d="m230.07 407.59c-1.03-0.66-2.24-0.43-3.31 0.04-1.12 0.48-1.46 1.47-1.9 2.5-0.04 0.09 0.04 0.1 0.08 0.03 0.59-0.93 0.92-1.77 2.03-2.22 1.03-0.42 1.9-0.2 2.93-0.03 0.11 0.02 0.28-0.25 0.17-0.32z"/>
							<path id="&lt;Path&gt;" class="s13" d="m199.85 407.77c-0.02 0.01-0.05 0.09-0.01 0.08 1.41-0.58 2.62 0.55 3.25 1.68 0.04 0.08 0.17-0.09 0.15-0.15-0.38-1.3-2.11-2.5-3.39-1.61z"/>
						</g>
						<g id="&lt;Group&gt;" style="opacity: .5;mix-blend-mode: screen">
							<path id="&lt;Path&gt;" class="s4" d="m205.75 393.38c-0.45 1.05-1.38 2.1-2.07 3.01-0.85 1.15-2.02 1.98-2.98 3.02-0.18 0.18-0.19 0.65 0.15 0.41 1.32-0.95 2.48-2.07 3.4-3.41 0.63-0.93 1.39-1.97 1.74-3.06 0.07-0.21-0.19-0.09-0.24 0.03z"/>
						</g>
						<g id="&lt;Group&gt;" style="opacity: .5;mix-blend-mode: screen">
							<path id="&lt;Path&gt;" class="s4" d="m203.39 411.46c-0.46-1.3-1.8-2.23-2.83-3.06-0.06-0.05-0.18 0.13-0.13 0.18 0.77 0.95 1.67 1.84 2.27 2.9 0.77 1.35 0.68 3.13 0.82 4.62 0.02 0.32 0.46-0.16 0.47-0.33 0.08-1.44-0.12-2.94-0.6-4.31z"/>
						</g>
						<g id="&lt;Group&gt;" style="opacity: .5;mix-blend-mode: screen">
							<path id="&lt;Path&gt;" class="s4" d="m215.55 419.89c-0.54 1.32-1.18 2.43-2.23 3.42-0.84 0.78-2.41 1.53-3.55 1.41-0.08-0.01-0.19 0.19-0.09 0.22 2.78 0.76 5.77-2.6 6.23-5.08 0.06-0.34-0.28-0.15-0.36 0.03z"/>
						</g>
						<g id="&lt;Group&gt;" style="opacity: .5;mix-blend-mode: screen">
							<path id="&lt;Path&gt;" class="s4" d="m219.42 417.66c-1.78 0.34-3.28-1.09-3.92-2.59-0.04-0.1-0.2 0.11-0.18 0.19 0.26 0.92 0.63 1.78 1.4 2.4 0.7 0.56 1.73 0.8 2.58 0.47 0.15-0.05 0.39-0.52 0.12-0.47z"/>
						</g>
						<g id="&lt;Group&gt;" style="opacity: .5;mix-blend-mode: screen">
							<path id="&lt;Path&gt;" class="s4" d="m211.67 418.45c-0.34-0.93-0.95-1.66-1.71-2.29-1-0.83-2.23-0.7-3.43-0.6-0.06 0.01-0.15 0.16-0.07 0.17 1.05 0.08 2.02 0.18 2.91 0.82 0.83 0.59 1.39 1.43 1.9 2.3 0.12 0.21 0.45-0.24 0.4-0.4z"/>
						</g>
						<path id="&lt;Path&gt;" class="s23" d="m215.68 405.84q-0.19 1.15-0.32 2.29l-0.06 0.58q-0.03 0.28-0.05 0.57c-0.04 0.39-0.04 0.77-0.06 1.15l-0.18-0.06q0.2-0.26 0.43-0.49 0.12-0.11 0.24-0.21 0.12-0.11 0.25-0.2 0.26-0.2 0.55-0.35 0.27-0.17 0.58-0.28 0.29-0.12 0.6-0.21 0.32-0.08 0.63-0.12 0.65-0.08 1.28 0.04-0.32-0.03-0.64-0.01-0.31 0.01-0.62 0.07-0.31 0.06-0.61 0.15-0.3 0.09-0.58 0.23-0.58 0.25-1.07 0.63-0.13 0.09-0.24 0.19-0.12 0.11-0.23 0.22-0.22 0.22-0.41 0.46l-0.01 0.01q-0.06 0.06-0.13 0.01-0.04-0.03-0.04-0.08c0.03-0.39 0.03-0.78 0.08-1.17q0.02-0.28 0.05-0.57l0.09-0.58q0.17-1.15 0.47-2.27z"/>
						<path id="&lt;Path&gt;" class="s23" d="m208.37 406.28q0.09 1.03 0.12 2.06 0 0.51-0.01 1.03-0.01 0.51-0.06 1.03-0.02 0.09-0.11 0.09-0.03-0.01-0.06-0.03-0.28-0.28-0.62-0.49-0.34-0.19-0.73-0.3-0.76-0.24-1.59-0.2 0.82-0.15 1.64 0.05 0.4 0.09 0.77 0.3 0.37 0.2 0.67 0.5l-0.17 0.06q0.05-0.51 0.07-1.02 0.02-0.51 0.03-1.02z"/>
					</g>
					<path id="&lt;Path&gt;" class="s12" d="m216 404.58c0 0 0.18-0.69 0.59-1.67 0.2-0.49 0.46-1.06 0.78-1.65 0.33-0.58 0.72-1.18 1.17-1.74 0.44-0.56 0.96-1.06 1.52-1.44q0.41-0.29 0.85-0.47 0.22-0.08 0.42-0.15 0.22-0.05 0.42-0.1 0.4-0.06 0.73-0.04c0.22 0 0.4 0.05 0.56 0.06q0.46 0.12 0.47 0.13-0.01-0.01-0.48-0.09c-0.15 0-0.34-0.04-0.55-0.02q-0.33 0-0.71 0.08-0.19 0.05-0.39 0.11-0.21 0.06-0.41 0.16-0.41 0.19-0.81 0.47c-0.53 0.38-1.04 0.88-1.47 1.43q-0.67 0.83-1.16 1.7-0.5 0.87-0.84 1.6-0.34 0.74-0.52 1.17-0.17 0.45-0.17 0.46z"/>
					<path id="&lt;Path&gt;" class="s12" d="m207.95 404.13c0 0-0.11-0.59-0.37-1.45q-0.18-0.66-0.51-1.45c-0.2-0.52-0.47-1.06-0.8-1.54q-0.25-0.37-0.55-0.69-0.3-0.31-0.66-0.52-0.36-0.2-0.73-0.28-0.18-0.03-0.36-0.04-0.18-0.01-0.34 0.01c-0.23 0.02-0.42 0.07-0.6 0.11q-0.26 0.09-0.44 0.17-0.37 0.16-0.38 0.17 0.01-0.01 0.36-0.21 0.18-0.09 0.44-0.2c0.17-0.05 0.37-0.13 0.6-0.15q0.17-0.03 0.36-0.03 0.19-0.01 0.39 0.03c0.13 0.01 0.26 0.06 0.4 0.09q0.19 0.07 0.39 0.18 0.38 0.21 0.71 0.54 0.32 0.32 0.58 0.7c0.67 1.03 1.04 2.2 1.25 3.08 0.21 0.88 0.26 1.48 0.26 1.48z"/>
				</g>
				<g id="&lt;Group&gt;">
					<g id="&lt;Group&gt;" style="opacity: .5;mix-blend-mode: multiply">
						<path id="&lt;Path&gt;" class="s4" d="m244.52 498.32l-1.17 1.81 0.54-3.63c0 0-0.72 0.46-1.72 2 0.91-2.36 1.99-5.17 4.26-10.15 2.27-4.99 0.27-8.34 0.9-8.7 0.64-0.36 1.91-1.54 2.09-2.99-1.54 1.54-5.89 3.08-8.7-0.82-2.81-3.89-0.91-7.43 1.54-16.67-2.54 4.89-5.26 7.25-6.61 3.44 0.6 3.29 0.56 6.4 0.33 8.85 0.21-0.95 0.32-1.54 0.32-1.54 0 0 0.72-0.35 1.63-1.27-0.56 4.44 1.38 11.27 7.04 10.61 0 0 2.38 3.06 0.4 8.93-1.99 5.86-4.96 11.28-4.69 14.53 1.17-2.17 2.07-2.79 1.98-2.53-0.09 0.27 0 3.25 0 3.25l1.45-2.43c0 0 1.26 2.07 4.78 0.45 0.19-0.24 0.2-0.56 0.12-0.9-4.79 0.99-4.49-2.24-4.49-2.24z"/>
					</g>
				</g>
				<g id="&lt;Group&gt;">
					<g id="&lt;Group&gt;" style="opacity: .5;mix-blend-mode: multiply">
						<path id="&lt;Path&gt;" class="s4" d="m229.98 497.9c-1.26 1.03-0.57 8.81 0.68 13.05 1.27 2.98 0.35 4.36 0 5.27 0-2.06-0.45-2.29-0.45-2.29l-0.8 2.29-0.69-2.17c0 0-1.26 0.57-1.49 1.72-0.23-1.04 0.8-3.1 0.8-3.1 0 0-1.72 1.03-1.95 1.72 0.23-2.18 1.03-1.95 1.15-4.01 0.11-2.06 0.46-10.19 0-12.02q-0.07-0.26-0.17-0.54c-0.28 4.3-0.48 8.77-1.22 13.08-0.85 4.87-0.99 4.87-0.22 6.7 0.36-1.41 0.85-2.12 0.85-2.12 0 0-0.07 2.68 1.41 3.25-0.43-1.2-0.35-1.98-0.35-1.98 0 0 0.35 1.41 2.18 1.9 0.07-0.84 0.21-1.27 0.21-1.27l0.64 1.06 1.41-2.18c0 0 0.21 0.56-0.21 1.62 1.13-0.5 1.69-2.33 0.84-5.08-0.84-2.75-2.39-11.13-1.27-15.29 0.2-0.77 0.32-1.39 0.37-1.97-0.37 0.89-0.91 1.77-1.72 2.36z"/>
					</g>
				</g>
				<g id="&lt;Group&gt;" style="opacity: .5;mix-blend-mode: screen">
					<path id="&lt;Path&gt;" class="s4" d="m201.56 470.4c0.05-0.25-0.23-0.06-0.26 0.07-1.57 5.66-1.94 12.6-0.14 18.26 0.12 0.39 0.58-0.21 0.53-0.45-1.01-5.9-1.44-11.98-0.13-17.88z"/>
				</g>
				<g id="&lt;Group&gt;" style="opacity: .5;mix-blend-mode: screen">
					<path id="&lt;Path&gt;" class="s4" d="m203.27 493.84c-0.37-0.22-0.69-0.45-0.93-0.83-0.23-0.38-0.24-0.87-0.54-1.2-0.07-0.07-0.18 0.09-0.16 0.15 0.1 0.31 0.01 0.58 0.05 0.88q0.05 0.36 0.22 0.68c0.21 0.45 0.57 0.86 1.1 0.83 0.16 0 0.47-0.38 0.26-0.51z"/>
				</g>
				<g id="&lt;Group&gt;" style="mix-blend-mode: screen">
					<path id="&lt;Path&gt;" class="s2" d="m216.07 516.6c-0.93-0.68-1.01-1.72-1.54-2.67-0.05-0.08-0.19 0.1-0.16 0.17 0.23 0.64 0.29 1.32 0.49 1.97 0.16 0.48 0.33 1.05 0.86 1.19 0.24 0.06 0.56-0.51 0.35-0.66z"/>
				</g>
				<g id="&lt;Group&gt;" style="mix-blend-mode: screen">
					<path id="&lt;Path&gt;" class="s2" d="m227.12 524.18c-1.24-0.93-0.71-3.22-0.75-4.55 0-0.17-0.17 0.02-0.19 0.1-0.12 1.03-0.39 1.94-0.29 2.98 0.06 0.7 0.04 1.83 0.83 2.12 0.27 0.1 0.65-0.48 0.4-0.65z"/>
				</g>
				<g id="&lt;Group&gt;" style="mix-blend-mode: screen">
					<path id="&lt;Path&gt;" class="s2" d="m244.7 505.06c-0.44-0.11-0.89-0.1-1.34-0.17-0.5-0.09-0.81-0.45-1.03-0.9-0.06-0.12-0.27 0.15-0.24 0.25 0.14 0.46 0.33 0.85 0.76 1.09 0.47 0.27 1.13 0.21 1.65 0.19 0.16 0 0.42-0.41 0.2-0.46z"/>
				</g>
				<g id="&lt;Group&gt;" style="mix-blend-mode: screen">
					<path id="&lt;Path&gt;" class="s2" d="m221.92 502.22c-0.11-0.37-0.18-0.67-0.14-1.06 0.03-0.32 0.11-0.63 0.13-0.96 0.01-0.21-0.23 0-0.26 0.1-0.11 0.65-0.63 1.73-0.12 2.31 0.16 0.2 0.44-0.23 0.39-0.39z"/>
				</g>
			</g>
		</g>
	</g>
</svg>