<svg version="1.2" xmlns="http://www.w3.org/2000/svg" viewBox="0 0 800 800" width="800" height="800">
	<style>
		.s0 { fill: #fcb421 } 
		.s1 { fill: #b2802c } 
		.s2 { fill: #dc9f28 } 
		.s3 { fill: #a15641 } 
		.s4 { fill: #414042 } 
		.s5 { fill: #7c6444 } 
		.s6 { fill: #d3972a } 
		.s7 { fill: #ffffff } 
	</style>
	<g id="OBJECTS">
		<g id="&lt;Group&gt;">
			<path id="&lt;Path&gt;" class="s0" d="m332.25 76.92c-2.78-1.86-6.94-2.7-12.73-0.93-5.78 1.77-7.32 2.16-6.94 2.16 0.39 0 0.7 0.92 6.4 4.16 5.71 3.24 11.41 1.39 11.41 1.39z"/>
			<path id="&lt;Path&gt;" class="s1" d="m328 80.58c-0.64-1.24-5.82-6.68-7.97-7.87-2.16-1.2-3.67-0.72-4.38-1.82-1.2-1.87 0.62-5.1 2.38-4.59 1.98 0.57 2.15 2 3.47 3.43 1.32 1.44 8.38 6.34 8.22 8.54-0.17 2.2-1.72 2.31-1.72 2.31z"/>
			<path id="&lt;Path&gt;" class="s2" d="m407.72 261.74c-2.03 8.3-0.47 47.47-0.61 54.38-0.14 6.91 2.82 9.88 3.92 21.13 1.09 11.25-4.22 64.89-5.74 61.79-1.52-3.09 1.19-56.78-6.8-72.22-7.99-15.45-5.29-21.76-7.2-33.88-1.9-12.11-7.18-36.2-7.18-36.2z"/>
			<path id="&lt;Path&gt;" class="s3" d="m404.62 381.59c-0.71 3.87-7.12 12.38-10.33 17.49-3.22 5.12-3.91 6.46-2.7 6.79 1.22 0.34 22.03 0.93 23.78-3.32 0.42-0.99-6.12-20.17-7.09-20.62-1.8-0.82-3.66-0.34-3.66-0.34z"/>
			<path id="&lt;Path&gt;" class="s2" d="m478.25 261.69c-9.93 17.01 9.25 54.31 4.05 66.52-5.19 12.2-10.83 42.82-6.8 55 4.03 12.18-5.08 6.17-6.03 0.59-0.95-5.58-1.14-48.79 0.05-57.42 1.19-8.63-23.86-57.86-20.4-59.82 3.46-1.96 29.13-4.87 29.13-4.87z"/>
			<path id="&lt;Path&gt;" class="s3" d="m468.94 374.77c-0.7 3.88-7.49 12.25-10.71 17.37-3.21 5.11-3.9 6.45-2.69 6.78 1.22 0.34 22.02 0.94 23.79-3.31 0.41-1-4.05-18.65-5.03-19.1-1.8-0.82-5.36-1.74-5.36-1.74z"/>
			<path id="&lt;Path&gt;" class="s0" d="m357.47 106.89c-4.15 0.53 9.96 39.18-3.31 43.73 0.38-2.95 4.05-12.39-0.7-16.06 2.41 6.1-2.27 16.23-2.63 16.31q-0.86 0.2-1.71 0.37c-24.48 5.06-38.59-3.22-34.31-15.3 2.13-2.03 5.19-7.7 6.74-9.89 10.22-14.37 7.3-27.58 2.39-33.73 0.13-18.09 2.39-18.28 9.13-22.48 6.74-4.19 9.92-5.04 21.14 3.35 11.21 8.4 48.73 53.98 69.49 105.72 20.76 51.75 7.78 42.15 25.42 49.83 17.65 7.69 27.9-11.21 45.22 7.91 17.32 19.12 3.63 37.59-0.42 49.15-4.04 11.56-37.54 19.14-77.37 4.85-39.84-14.29-42.13-36.05-42.28-53.03-0.15-16.97 9.3-31.49 6.27-80.05-3.03-48.57-23.07-50.68-23.07-50.68z"/>
			<path id="&lt;Path&gt;" class="s0" d="m496.39 264.44c-9.93 17.01 9.25 54.31 4.05 66.52-5.19 12.21-10.82 42.83-6.8 55.01 4.03 12.17-5.07 6.17-6.02 0.58-0.95-5.58-1.14-48.79 0.04-57.42 1.19-8.63-23.86-57.86-20.4-59.82 3.46-1.96 29.13-4.87 29.13-4.87z"/>
			<path id="&lt;Path&gt;" class="s0" d="m421.92 266.03c-2.02 8.31-0.46 47.47-0.6 54.38-0.14 6.91 2.82 9.88 3.91 21.13 1.1 11.25-4.21 64.89-5.73 61.8-1.52-3.1 1.19-56.79-6.8-72.23-8-15.44-5.29-21.76-7.2-33.88-1.9-12.11-7.18-36.2-7.18-36.2z"/>
			<path id="&lt;Path&gt;" class="s4" d="m330.26 95.5c1.72-0.17 3.26 1.27 3.45 3.21 0.19 1.95-1.05 3.66-2.77 3.82-1.72 0.17-3.27-1.27-3.45-3.21-0.19-1.94 1.05-3.65 2.77-3.82z"/>
			<path id="&lt;Path&gt;" class="s5" d="m326.49 132.53c1.38-0.14 2.63 1.06 2.78 2.67 0.16 1.61-0.83 3.02-2.21 3.16-1.38 0.13-2.63-1.06-2.78-2.67-0.16-1.61 0.83-3.03 2.21-3.16z"/>
			<path id="&lt;Path&gt;" class="s1" d="m337.25 68.18c0.41-1.18 1.92-7.52 1.71-9.68-0.21-2.15-1.31-3-0.87-4.06 0.74-1.8 3.98-2.1 4.49-0.57 0.58 1.71-0.36 2.55-0.74 4.21-0.38 1.67-0.01 9.62-1.68 10.6-1.68 0.98-3.18 0.55-2.91-0.5z"/>
			<path id="&lt;Path&gt;" class="s0" d="m343.5 74.45c1.07-1.43 5.21-6.8 9.89-9.79 4.68-2.99 18.29-3.25 16.93-1.6-1.36 1.66-2.04 4.61-10.55 10.91-8.51 6.31-13.77 4.29-15.5 3.24-1.72-1.05-0.77-2.76-0.77-2.76z"/>
			<path id="&lt;Path&gt;" class="s6" d="m370.4 62.77c-0.99 2.56-4.58 8.18-9.27 11.58-4.7 3.4-10.15 4.14-12.85 4 0.13-2.23 0.56-5.36 4.9-8.15 4.35-2.78 13.22-6.49 17.22-7.43z"/>
			<path id="&lt;Path&gt;" class="s7" d="m331.61 97.34c0.49-0.05 0.94 0.35 0.99 0.89 0.05 0.55-0.3 1.02-0.8 1.07-0.49 0.05-0.93-0.35-0.98-0.89-0.06-0.54 0.3-1.02 0.79-1.07z"/>
			<path id="&lt;Path&gt;" class="s1" d="m398.6 191.06c2.99 1.53 7.83 9.58 8.05 16.05 0.23 6.46-0.7 15.68-9.79 13.93-9.09-1.75-17.97-9.6-12.71-20.05 5.27-10.45 14.45-9.93 14.45-9.93z"/>
			<path id="&lt;Path&gt;" class="s1" d="m428.53 233.97c-8.62-5.24-19.86 2.14-20.32 9.89-0.46 7.75 2.57 13.94 12.05 15.45 9.47 1.51 21.19-3.08 19.33-11.82-1.87-8.74-11.06-13.52-11.06-13.52z"/>
			<path id="&lt;Path&gt;" class="s1" d="m381.91 246.83c-1.6 14.19 17.68 27.26 22.05 5.67 4.61-22.77-18.15-40.26-22.05-5.67z"/>
			<path id="&lt;Path&gt;" class="s1" d="m442.13 280.09c3.92 3.24 13.94-1.96 17.64-4.9 5.48-4.34 18.47-16.79 3.77-19.27-21.58-3.65-23.05 22.81-21.41 24.17z"/>
			<path id="&lt;Path&gt;" class="s1" d="m459.75 235.99c-3.76 0.58-3.83 6.47 0.82 10.45 5.84 5 6.48 4.96 16.11 3.06 13.54-2.68-6.64-18-15.11-13.74-0.3 0.15-1.45 0.17-1.82 0.23z"/>
			<path id="&lt;Path&gt;" class="s1" d="m486.69 258.61c-4.35 4.45-14.97 21.76-6.07 25.78 4.86 2.2 15.49-11.96 16.47-16.96 1.63-8.32-7.91-11.36-10.4-8.82z"/>
			<path id="&lt;Path&gt;" class="s1" d="m480.74 298.93c0.27 0.21 6.81 15.56 4.76 1.53-0.58-3.91-5.63-2.2-4.76-1.53z"/>
			<path id="&lt;Path&gt;" class="s1" d="m489.56 291.17c-1.82 3.46 1.76 18.45 5.14 9.96 0.98-2.45 0.41-9.71-3.07-9.95-0.35-0.03-1.91-0.33-2.07-0.01z"/>
			<path id="&lt;Path&gt;" class="s1" d="m426.05 277.65c0.8 4.54-9.59 14.25-9.55 2.2 0.01-6.33 4.22-9.33 8.75-4.7 0.94 0.97 0.64 1.59 0.8 2.5z"/>
			<path id="&lt;Path&gt;" class="s1" d="m409.69 276.66c3.09-5.65 2.39-11.19-4.79-8.42-10.03 3.87-1.13 19.21 4.79 8.42z"/>
			<path id="&lt;Path&gt;" class="s1" d="m423.38 215.34c6.38-2.93 5.97-16 2.7-22.55-3.29-6.59-0.87-12.42-9.23-9.88-2.43 0.74-4.77 3.98-5.04 6.55-0.75 7.25 0.07 31.17 11.57 25.88z"/>
			<path id="&lt;Path&gt;" class="s1" d="m404.7 175.15c1.27-6.53-5.21-19.18-12.02-13.48-22.08 18.51 6.92 39.89 12.02 13.48z"/>
			<path id="&lt;Path&gt;" class="s1" d="m379.74 132.98c-0.58 4.98 6.53 25.84 13.06 12.16 4.1-8.57-14.49-16.78-13.06-12.16z"/>
			<path id="&lt;Path&gt;" class="s1" d="m379.95 114.3c0.69 3.75 10.76 20.48 12.58 11.36 0.97-4.89-12.6-16.71-12.58-11.36z"/>
			<path id="&lt;Path&gt;" class="s1" d="m398.46 139.87c-6.31 0.82 4.31 25.36 5.62 13.31 0.9-8.26-2.23-13-5.62-13.31z"/>
			<path id="&lt;Path&gt;" class="s1" d="m363.67 92.98c-2.33 1.42 0.75 17.28 9.38 15.25 1.8-4.44-4.56-18.57-9.38-15.25z"/>
			<path id="&lt;Path&gt;" class="s1" d="m346.98 80.92c-4.12 3.24 11.9 13.22 6.47 3.27-2.68-4.92-6.19-3.49-6.47-3.27z"/>
			<path id="&lt;Path&gt;" class="s1" d="m418.8 292.29c1.41 4.38-4.36 13.81-5.45 4.58-0.75-6.34 3.02-6.12 5.45-4.58z"/>
			<path id="&lt;Path&gt;" class="s1" d="m408.72 294.09c1.01-0.11 1.12-6.04-1.8-4.26-0.31 1.12-0.47 4.52 1.8 4.26z"/>
			<path id="&lt;Path&gt;" class="s3" d="m418.83 386.14c-0.71 3.87-7.9 12.4-11.12 17.51-3.22 5.12-3.9 6.46-2.69 6.79 1.21 0.34 20.23 1.31 21.99-2.94 0.41-0.99-3.58-20.56-4.56-21-1.8-0.82-3.62-0.36-3.62-0.36z"/>
			<path id="&lt;Path&gt;" class="s3" d="m487.21 381.04c-0.71 3.88-6.28 11.28-9.5 16.4-3.21 5.11-3.9 6.45-2.69 6.78 1.21 0.34 19.01 1.23 20.77-3.02 0.41-1-2.21-19.85-3.19-20.29-1.8-0.82-5.39 0.13-5.39 0.13z"/>
			<path id="&lt;Path&gt;" class="s0" d="m484.14 233.64c34.58-11.87 28.54 43.57 28.53 43.73l-3.2-0.33c0.01-0.14 5.49-50.56-24.28-40.34z"/>
			<path id="&lt;Path&gt;" class="s1" d="m511.88 269.93c0 0-3.08-0.31-5.23 7.71-2.64 9.79 2.73 31.16 2.87 30.54 0.14-0.63 5.74-8.78 6.86-20.14 1.12-11.36-4.5-18.11-4.5-18.11z"/>
			<path id="&lt;Path&gt;" class="s5" d="m316.55 134.82c1.38-0.13 2.63 1.07 2.78 2.68 0.16 1.61-0.83 3.02-2.21 3.16-1.38 0.13-2.63-1.07-2.78-2.68-0.16-1.61 0.83-3.02 2.21-3.16z"/>
			<path id="&lt;Path&gt;" class="s4" d="m346.2 92.63c1.72-0.17 3.27 1.27 3.46 3.21 0.19 1.94-1.05 3.65-2.77 3.82-1.72 0.17-3.27-1.27-3.46-3.21-0.18-1.94 1.06-3.65 2.77-3.82z"/>
			<path id="&lt;Path&gt;" class="s7" d="m347.56 94.47c0.49-0.05 0.93 0.35 0.99 0.89 0.05 0.54-0.31 1.02-0.8 1.07-0.49 0.04-0.93-0.35-0.98-0.9-0.06-0.54 0.3-1.01 0.79-1.06z"/>
		</g>
	</g>
</svg>